<svg id="Layer_1" data-name="Layer 1" xmlns="http://www.w3.org/2000/svg" viewBox="0 0 974.35 10.06">
  <title>border</title>
  <g>
    <path d="M981,14.17c.51-.26.22-.85-1.2-.72l-1,1Z" transform="translate(-6.89 -9.63)" fill="#256ce2"/>
    <path d="M971.5,12.4c-1.66.49-3.57,1.35-2.48,2.26,1.64-1,2-.57,3.8-1.72,1.41-.13,2.47.3,2.23.67.5-.26,2.2.2,3-.43a10.48,10.48,0,0,0-6.6-.12C970.87,12.85,971.38,12.59,971.5,12.4Z" transform="translate(-6.89 -9.63)" fill="#256ce2"/>
    <path d="M833.36,11.87l.89.11A4.39,4.39,0,0,0,833.36,11.87Z" transform="translate(-6.89 -9.63)" fill="#256ce2"/>
    <path d="M747.78,11.95c.65,0,.92-.13,1-.22C748.13,11.8,747.64,11.86,747.78,11.95Z" transform="translate(-6.89 -9.63)" fill="#256ce2"/>
    <path d="M733.16,11,734,11A1.6,1.6,0,0,0,733.16,11Z" transform="translate(-6.89 -9.63)" fill="#256ce2"/>
    <path d="M833.36,11.87l-2.29-.3C830.92,11.9,832.25,11.8,833.36,11.87Z" transform="translate(-6.89 -9.63)" fill="#256ce2"/>
    <path d="M952.47,14.94a5.64,5.64,0,0,0,1.24-.27l-1.17.11A.81.81,0,0,1,952.47,14.94Z" transform="translate(-6.89 -9.63)" fill="#256ce2"/>
    <path d="M871.08,10.79h.69a3.52,3.52,0,0,0,.57-.41Z" transform="translate(-6.89 -9.63)" fill="#256ce2"/>
    <path d="M900,10.42c-.65,0-.88.81-1.12,1.18a2.4,2.4,0,0,1,1.42-.59A.87.87,0,0,0,900,10.42Z" transform="translate(-6.89 -9.63)" fill="#256ce2"/>
    <path d="M946,11.57l.81-.12Z" transform="translate(-6.89 -9.63)" fill="#256ce2"/>
    <path d="M850.36,10.75a.63.63,0,0,0-.27-.3C850.09,10.56,850.2,10.66,850.36,10.75Z" transform="translate(-6.89 -9.63)" fill="#256ce2"/>
    <path d="M40.59,18.33c0-.06,0-.1,0-.15C40.42,18.26,40.36,18.32,40.59,18.33Z" transform="translate(-6.89 -9.63)" fill="#256ce2"/>
    <path d="M7,14.11l.47,0a1.63,1.63,0,0,0,.1-.47Z" transform="translate(-6.89 -9.63)" fill="#256ce2"/>
    <path d="M706.42,10l.12,0C707.24,10,706.84,10,706.42,10Z" transform="translate(-6.89 -9.63)" fill="#256ce2"/>
    <path d="M461,11.37c2.78.75-4.53,1-.34,1.81C460.24,12.84,464.44,11.86,461,11.37Z" transform="translate(-6.89 -9.63)" fill="#256ce2"/>
    <path d="M951.72,14.83c-.39,0-.79,0-1.19,0A7.23,7.23,0,0,0,951.72,14.83Z" transform="translate(-6.89 -9.63)" fill="#256ce2"/>
    <path d="M460.63,13.17h0l.43.08Z" transform="translate(-6.89 -9.63)" fill="#256ce2"/>
    <path d="M644.82,10.92a1.75,1.75,0,0,0,.63.37C645.43,11.2,645.28,11.1,644.82,10.92Z" transform="translate(-6.89 -9.63)" fill="#256ce2"/>
    <path d="M690.72,11.85l-1.14-.11A8,8,0,0,0,690.72,11.85Z" transform="translate(-6.89 -9.63)" fill="#256ce2"/>
    <path d="M621,12.25a5,5,0,0,0-1.67-.06,1.27,1.27,0,0,0,.26.1A2.52,2.52,0,0,1,621,12.25Z" transform="translate(-6.89 -9.63)" fill="#256ce2"/>
    <path d="M596.19,12.41c.13.06.31.11.46.17l.79,0Z" transform="translate(-6.89 -9.63)" fill="#256ce2"/>
    <path d="M116,18a3.63,3.63,0,0,1-1.14-.76C115.21,17.85,111.57,18.06,116,18Z" transform="translate(-6.89 -9.63)" fill="#256ce2"/>
    <path d="M952.45,14.46a.92.92,0,0,1-.73.37l.82-.05C952.61,14.65,952.63,14.54,952.45,14.46Z" transform="translate(-6.89 -9.63)" fill="#256ce2"/>
    <path d="M620,18.91l-3.94-.1C617.17,18.89,618.6,18.92,620,18.91Z" transform="translate(-6.89 -9.63)" fill="#256ce2"/>
    <path d="M293.93,18.11l-.9.1A2.18,2.18,0,0,0,293.93,18.11Z" transform="translate(-6.89 -9.63)" fill="#256ce2"/>
    <path d="M604.37,19a9,9,0,0,0-2.22-.57,1.67,1.67,0,0,0-.46.22Z" transform="translate(-6.89 -9.63)" fill="#256ce2"/>
    <path d="M114.82,17.24h0Z" transform="translate(-6.89 -9.63)" fill="#256ce2"/>
    <path d="M88.86,19.22c3.76,0,1.77-1.08,2.56-1.72,4.48-.31,2.07.82,3.6,1.39,2.8-.29,4.95-1.31,7-1.26.16.18.56.25.09.48,3-.88,8.78,0,12.23-1.14a1,1,0,0,1,.45.28,1.55,1.55,0,0,1-.53-1.52c1.68,0,3.13-.7,3.76,0a2.33,2.33,0,0,0-1.6.5l1.76-.31c1.59,1-2.41.36-2.41,1.13,3.44-.33,7.45-1.19,10.09-.89.55,1-6.16.34-2.65,1.25L119.16,17c3.11,1.61-2.48-.11.38,1.61,5.37.3,6-.51,11.36-.21,1.21-.56-.4-.84.81-1.4,7.61-1,6,2.57,11.58,1.22,1.45-.68,2-2,6-1.28l-1.36,1.15c5.2.12,3-1.65,8.41-.87-1,.45-4.08.38-3.3.51,3.52.91,2.49-.65,5.2-.65l.56,1c5.53-.15,11.63-.88,17.75-1.06-.34.3-1.39.62,0,.93,7.73-.5,16.5.14,23.95.76l2.85-.88c.66,0,1.23.4.51.57,2.9.34.15-.56,1.55-.9,1.65-.06,2.18.51,1.13.77,5.13-.74,14.6-1.59,20-.64l-1.05.26c4.21.36,4.75-1.8,8.65-1l-.75.16c9.13.39,19.22-.4,26.18.94,1.33-1.27,9,.58,9.62-1.19,5.21.88,3.72,1.2,11.06,1.8,2,.08,2.92-1.1,5.35-1.28l.06.92,3.29-1,1.75,1.11,2.27-.23c-.91-.06-1.92-.42-1.79-.68,3.55-.41,8.66.65,8.74,1.13l8.4-.77c-.19.37-1.59.5-2.71.73,4.49-.94.81,1,4.92.12-.55-.21.3-.55.39-.74,2,.56,6.71.57,10.16.34l-.66.64c6.23.17,13.14-.29,20.13-.27-2.51-.3-1.93-1.4.12-1.51l.82,1c1.32-.6-2.14-.37.58-1.11,2.61.12,1.76,1.11.25,1.43l3.18-.34c.19.29-.56.44-.75.82,1.3-.61,5.48,1,7.36-.06l.18.29c7,0,10.16-.32,15.86-.36.11-.84,2.34-.65,4-1.33,4.18.27,8.83.94,13.87.88,3.54-.42,1-.71,2.63-1.21.26.77,5.3.7,2.68,1.25,6.05-.12,7.73-.14,15.39-.76-.83-.32-1.76-.45-1.28-.71,1.39-.12,3.16.33,3,.7l-.37.08c8.59-1.14,19.83,2.26,26.67.67l-.38.08,7.1-.83c3.26.14-2,.57.46,1.05,7.65-1.27,12.09.19,18.4-.66,4.88,2.27,17.31-.16,23.9,1.28l-.38-.53c1.7-.52,2.06.3,3.31.43-.18-.41-1.85-.48-.79-.77,14.42-.65,29.76.77,44.54,1.25,5.41.14,3.06-2.76,9.88-1.49l-1.93,1c10.91-1.19,22.31,0,33-1-.64.23-.65.53-1.7.52,2.26.72,8.34,0,8.38-.55,1.66.07.39.53,1.41.83,2.26.42,5.68-.92,6.88-.2.2.12-.64.23-1,.29,1.47-.35,6.87.09,5.46-.74,4,.4,7.67-.39,10.87.08,2.08-.94,6.86.41,7.52-.91-.28,1.36,7,1.05,9.56.4-.85.42,2.21.41,1.21,1,2.89,0,5.54-.3,5-1,5.34,1.59,10.71-1.37,13.72.69,8.59-.78,16.54-1.32,24.27-1.69-.27,1.35-8.54.19-8.2,1.6,7.33-.6,11.55-1.79,18.83-1.5,1.88.17-1.07.59-1.7.83,7.32-.6,14.17,0,20.68-.74,0,.13-.72.27-1.38.38,1.28-.05,3,.18,2.84-.43l-1.25.17c-2.06-.88,5.09-1.9,5.32-2.37-2.17,1.78,6.44.4,3,2.65.84-.12,1.9-.42,1.71-.83,1.26.11,1.66.35.39.83,4.6-.36,3-1,7.13-1,0,.3-.85.42-1.28.77a20.37,20.37,0,0,1,7.75-1c-.21.18.2.41-.85.41,6-.13,10.3-1.6,16.94-1.09-1.95,1.31,2.26.41,2.62,1.53l3.57-.36-1.44-.53c3.13,0,5.88-.84,8.57-.49l-2.32.48,5.86-.26-3.32-.4c3.16-.6-.35-1.41,3.81-1.13-.84.12,3.13,0,4.76.64h0a14.33,14.33,0,0,1,5.45-.49c.6.35-.47,1.24-.08,1.48,1.52-.95,7.32-.31,9.24-1.32-.64.24-.67.83-.46.95l1.28-.77c1.45.23,1.66.35,1.43.82,4.36.11-1.39-1.41,3.78-.84-.41.06-.21.18-1.06.3,5.2.28,10-.56,14.8-.22,1.42,1.12-4.17.31-2.55,1.25,6.88-.25,14.24-1.45,20.89-1.24L807,14.89c.91-1.6,5,.75,8.32,0-.82.12-1.07.89-.85.71,4.56.22,9.32-.46,16.22-1l-.85.41c2.69.35,7.08.16,10,.32.86-.41,2.52-.36,1.51-.95,9,2.26,17.06-1.37,25,.51-.95,0-2.26.37-1.5.37l6.76-.43c-.54-.69-.89-.41-2.31-.94a12.45,12.45,0,0,1,4.44-.76c-3,.48,0,1.11,1.35,1.49-.22-.21.23-.45.11-.66,3.54,1.21.58-1.4,5.41-.6l-.25.37a32.64,32.64,0,0,1,5.41-.6c.81.8-1.92.39-2,1,2.73-.07,5.38-1.56,7.86-.78-1.16.23-2.83.25-4,.48a12.89,12.89,0,0,0,5,.81l-.2,0L897,15l-1.18-.25c3.41-2.12,7-.43,11.56-1.84-4.47,1.33-.73.76-1.07,1.67,1.18.24,3,.51,2.46.77,2.17-.75,3.64.55,6.71-.54.14.29,2.33,0,1.84.75,2.83-.25-.67-.5-.44-.87,4.36-1,10.27,1.14,16.54-.28,5.41-.6,6.41-1.6,11.43-2.13,1.7.46-1.38,1.08-1.38,1.08a23.8,23.8,0,0,0,7.37,0c-.52.26,0,.47.81.79,2.07-.09,1.38-1.08,4.11-.66a7.1,7.1,0,0,1-2.06,1.19c2.44-.29,4.84-.85,7.36-1.13.67.5-1.52.78-2.41,1.12,2.84-.25,7.35-.52,8.22-1.33l-1.82-.27c1,0,.54.69-.22.84-2.43.65-3.51-.25-3.65-.55l1.8-.2c-1.86-1.7-7.22.33-10.84.26l1.5-1.26-3.7,1.06c-.79-.32-1.34-1,.45-1.21-2.6-.6-2.29.46-4.53-.21-.25-.11-.14-.17.09-.22l-2.53.39c.49-.27-.43-.88,1.13-.71-4.56-.69-7.33,1-9.05.06l.38-.08c-6.31.47-.6.92-5.33,2L927.35,11l-.61.92c-.65,0-1.94-.09-1.7-.46-2.42.64.42.4-1,1-3.14-.81-8.64.45-9.36-1-1.12.7,3,.51-.34,1-1-1.56-3.87.3-6.74-.4.87-.82,3.59-.41.72-1.11-1.72,1.38-5.58-.26-8,0-.11,1.09-5.25.49-9.3.89.25-.37-7.63-.54-11.41-.91l.11-.18c-.72,1.11-4.61.93-7.44,1.18.11-.66.61-.92,2.15-1.23l-2.66,0a7.55,7.55,0,0,1-3.18.69l.66-.83c-3.54.07-7.13,1-11.69.51-.25.77,3.64,2.11-1.18,2.66-.18-.41-.37-1.12.9-1.3a6.74,6.74,0,0,1-2.3.18L856.9,12c-2.08-.29-1.08.59-2.74.54,0-.59-1.23-.41-1-.89.42-.06,1.45.23,2.08,0a14.89,14.89,0,0,1-4.89-.87c.17.34,0,.8-1.36.88-3.54.07-1.22-.7-3.29-1-.86.42-3.12,0-3.17.89a2.25,2.25,0,0,1-1.63-.65c-1.83.4-8.57.17-6.49,1.1l.47.06-.3,0h0c-6,.92-12.49-.41-18.45,0v-.3c-3.56.36-7.92.26-10.46.91-1.05,0-2.49-.52-2-.88-2.72.24-3,.58-7,.12,2.73-.54-.95-.45,2.8-.4-3.54-.23-4.34-.7-8.13.14,1.29-.77-2.67-.94-4.35-.7l2.48.52a51.61,51.61,0,0,1-5.22,0l.9-1c-7.25-1.16-13,2.16-18.56.17-1.91.71,3.93.46,2.23,1.29-3.33-.11-6.81-1.52-7.85-1.51-4.56-.52-4.24,1.49-9,1.15.61.35,1.2,1.3-2.37,1.66-3.33-.11-4.11-1.46-2-1.76.8,0,1.18.07,1.15.2,1.08-.14,2.49-.3,1.16-.68l-.43.36c-1.66-.35-6.24-.28-5.17-.87-2.51.36-1.07.59.79.76-4.28-.48-6.68,0-11.08-.28.7.19,1.35.6.65.61-6.45-.39-2.84.7-7.2.88-2.49-.53.88-1.3-3.52-.82-2.69-.35-.58-.94.49-1.24-4,.71-7.49-.41-9.78-.52l2.11-.3a23.15,23.15,0,0,1-3.35.18l1.21.7c-1.24-.12-2.29-.11-2.27-.41-1.27.47,1,1.18-1.54,1.83-1.65-.35-5,.42-5.61-.52,5.2.29-.58-.95,3.82-1.12a13.74,13.74,0,0,1-3.13,0c-.19-.1.17-.2.51-.25-5-.81-2.28,1.08-7.43,1.09.65-.54-1.2-1-2-.88,2.08,0,1,.88-.9,1.3-3.31-.39-3.59.33-5.32.29l2,.18c-.67.54-2.32.48-4.62.66-.2-.41,2.09-.3,1.27-.48-2.55,1-5.79-.93-9.35-.28-1.65-.35-.17-1-1.62-1.24-4,.71-4.33-.7-8.53-.11,1.21.71,1.43.53-1.53,1.25l6.9-.54-4.43,1.07c2.08,0,4.4-.48,5.65-.36-2.11.6-1.89.42-.89,1-2.86-1.06-5.65.66-9,0l.09-1.77c-5-.76-8.8,1-15.24.55l2.07.3c-.86.71-4,.12-6.06.42.19-.59-1.11-.8-2-1.16.11.44-4.71,0-5.29,1.17l-2.88-.76c-5.2-.29-5.92,1.72-10.92,1.55,1.5-.65-.77-1.06,2.58-1.54-1.67,0-3.17-.1-3.19.31-1-.36-4.62.83-6.16.27-.7.26-.93.89-2.8.85-.2-.12,0-.29,0-.29,0,.29-2.93.42-1.29,1.06-5.15-1.82-14.36.22-18.84-1.34-3.64.21-8,.39-11.33.44.21-.18,0-.3.63-.23-4.56-.55-2.8,1.7-8,1.09-2.65-1,2.75-.52,1.1-.88-.72-1.95-6.26.27-9.76-.87l.85-.12c-2.67-.66-6.51.74-10.87.6,0,0,.21-.17,0-.29-3,1-8.62,1.33-12.82,1.6,1.3-.76,1.91-.4,1.11-1.18-1.88.11.55,1.24-3.2,1.46-1.22-.42-3.93-.78-4.29-1.61l3.54,0c-1.82-1.07-4.58,0-6.45-.15l.24-.47c-5.43.15-5.5,1.33-11.33,1.25l.6.35c-3.19,1.17-2.67-.66-5.85.21l-1-1.18c-2.1.29-7.36,1.15-11.14,1.37,2.14-.88,6.55-1.33,9.28-1.85-2.08,0-7.08.09-8.17.67a8.52,8.52,0,0,1,2.73-.22,29.65,29.65,0,0,1-10.07,1.37c.74-2.3-10.83-.58-13.84-2.36-7.35.85-14.58-.36-23.14-.22,3,1.79-2.5.05-2,1.89a8.84,8.84,0,0,1-2.93,0l-6-1.09c-1.43-.53,1.9-.4,1.71-.82-4.37-.14-1.83-.78-4.72-1.26.59.66-1.52.94-4,.69l3.5.85c-6.1,1-5.27-1.54-11.42-.58l1.95-.57c-3.16.34-11.64,0-14.74,1.44-.56-.21-1.29-.71.09-.85-7.54-.23-16.79,1.55-22.65.63l.57-.45c-1.41.13-2.45.84-4.21.39.09-.19.57-.45-.08-.47a20,20,0,0,1-5.6.52l1.59-.5c-7.36-.6-11.29,1.22-17.46,1.52,0-1.32-5.77-1.76-8.66-2l.1-.19C362,10.28,356,11.53,348.08,12c-4.92-1.44-16.68-.62-24.59-1.43,1.21.24-.2,1-1.61,1.16-1.86-.27-5.13.91-4.84-.3l.66,0c-1.4-1.19-5.22-.88-8.2-.91L309,12.15c-7.79-2.31-20.43.82-24.68-1.25-1.88.39-4.21.39-6.08.78l.1-.85c-5.21-.22-7.81-.33-14.26-.14l1.31-.61c-3.63-.06-4.59,2.44-7.94,2.49l-1-1.27c-6.34,0-12.75-1.11-19,0,.1-.19.29-.55,1.32-.6-3,0-11.54-.87-10.46.87-.07-1.13-6.54-.12-10,.38l.53-.84c-2.89,1.06-3,1.36-7,1.65-1-.11-.84-.67.43-.45-3.19-.44-2.48.79-6.35.34l1.44-.53c-3.28-.07-3,.22-4.82.84-2.06.33-6.22-.22-6.7-1a6.12,6.12,0,0,1-4.17.85c-.26-.29.44-.46.8-.55-5.48-.58-8.15,1-11.92.14a.79.79,0,0,0-.64-.5c4.36,0,7.86.08,7.53.14,0-.77-3.52-.91-.72-2-2.83.58-7.66,1.83-11.08,1.47a1.57,1.57,0,0,1-.45-.27l.35-.09a7.4,7.4,0,0,0-2.17.12,24.41,24.41,0,0,0-2.84-.24c-.4-.64-4-.35-5.79-.38.14.84-2.15.71,0,1.4-.28-.06.33-.1,1.5-.13a5.34,5.34,0,0,0,.75-.09l-.12.07,4.36-.05a8.32,8.32,0,0,1-4.77.31c-.9.54-1.89,1.1-2.45,1.36-2.4-1.18-7-1.82-7.67-2.55-5.36.47-12.62.3-16,1.88-1.52.2-1.75-.46-2.32-.71a15.13,15.13,0,0,0,2.4-.36c-3,.4-9,.15-9.75,1.25-3.84-.5,2.16-1-3.12-.84l.71-.34c-10.37-1.78-16.87,2.8-28.37.52.8.14,1.19.21,1.36.39-13.11-1-27,.91-40-.7-3.68-.32-4.08.38-6.32.92l-.8-.91-3.84,1c-5.44.76-9.42-2.23-16.31-.8l.89.61c-2.47-.12-7.84.35-7.42-.35a2,2,0,0,1-1.78.31l-.07-.47-6.08.81c-4.71-.35.74-1.88-6.14-2-2.56.18-7.28,1.37-6.32,1.69,1,0,2.64.3,2.71.77l-2.34.24c-.43,1.4-2.22,2.82,3.51,3.81L15,17l1.29.68-3.37,0c1.91.64,3.12.08,4.48-.31a2.84,2.84,0,0,0,1.68.75L23,16.85c.48.55-1.76,1.08.87,1.39,1.84-.62-1.76-1.23,1.28-1.63,1.91.64,1.35,1.15,3.6.61.32.36-.16.59-1.05.75,2-.43,5.29-.18,6.32-.92,2,.79,6.75-.2,6.55,1.13a19.63,19.63,0,0,1,5.36-1.09c-3.36,1.58,6.87.1,6,1.8,2.48-1.42,9-.62,13.36-1.41a2.09,2.09,0,0,1-1.12.27,26,26,0,0,1,4.78.82c.32-1.18,4.17-1.44,6.25-2.16,3,1.14-1.84,1.38-.89,2.47-.15-1,5.27-.94,4.24-1.74,2.32.7,2,.34,3.19,1.32.41-1.47,2.16-.25,4.09-1.15,3.36.73.86,1.38,4.55.94C92.14,18.7,88.86,19.22,88.86,19.22Zm87.71-2.44v0l-1.81,0Zm7.37,0c-.9,0-2,0-3.2,0-.26-.29,0-.59.76-.57C181.11,16.36,182.84,16.53,183.94,16.78Zm-15.58-5.86c1.17-.12,1.56,0,1.72.22-.55,0-1.2,0-2,.1,0,0-.1.07-.14.1A1.18,1.18,0,0,1,168.36,10.91Z" transform="translate(-6.89 -9.63)" fill="#256ce2"/>
    <path d="M166.26,12a4.39,4.39,0,0,1-.48.06c.24.07.46.14.7.19l.41-.26Z" transform="translate(-6.89 -9.63)" fill="#256ce2"/>
    <path d="M834.41,12l-.16,0a1.1,1.1,0,0,1,.33.12A1,1,0,0,1,834.41,12Z" transform="translate(-6.89 -9.63)" fill="#256ce2"/>
    <polygon points="278.83 8.88 278.82 8.66 278.18 8.85 278.83 8.88" fill="#256ce2"/>
    <path d="M875,14.59a1.11,1.11,0,0,0,.53.21A1.45,1.45,0,0,0,875,14.59Z" transform="translate(-6.89 -9.63)" fill="#256ce2"/>
    <path d="M892.56,14.65l2.48.28C894,14.77,893.19,14.7,892.56,14.65Z" transform="translate(-6.89 -9.63)" fill="#256ce2"/>
    <path d="M906.05,15a.87.87,0,0,0,.26-.36h0Z" transform="translate(-6.89 -9.63)" fill="#256ce2"/>
    <path d="M691.68,17.48a4.8,4.8,0,0,0-.52,0C689.94,17.7,690.77,17.63,691.68,17.48Z" transform="translate(-6.89 -9.63)" fill="#256ce2"/>
    <path d="M755.47,15.1c-.68.16-1.34.31-2,.41C754.56,15.57,755.44,15.58,755.47,15.1Z" transform="translate(-6.89 -9.63)" fill="#256ce2"/>
    <path d="M620.44,18.92h0Z" transform="translate(-6.89 -9.63)" fill="#256ce2"/>
    <path d="M750.45,15.52a10.32,10.32,0,0,0,3,0A15.93,15.93,0,0,0,750.45,15.52Z" transform="translate(-6.89 -9.63)" fill="#256ce2"/>
    <path d="M964.49,14.93l.65,0a.14.14,0,0,1,.08-.14Z" transform="translate(-6.89 -9.63)" fill="#256ce2"/>
    <path d="M965.21,14.82l.72-.1A1.39,1.39,0,0,0,965.21,14.82Z" transform="translate(-6.89 -9.63)" fill="#256ce2"/>
    <path d="M967.45,14.49l-1.52.22A3,3,0,0,0,967.45,14.49Z" transform="translate(-6.89 -9.63)" fill="#256ce2"/>
    <path d="M946.64,14.67l-.2.31A.4.4,0,0,0,946.64,14.67Z" transform="translate(-6.89 -9.63)" fill="#256ce2"/>
    <path d="M941.21,14.8c1.29.06,3.25.63,5.05.42l.17-.24C945.59,15.44,942.44,14.27,941.21,14.8Z" transform="translate(-6.89 -9.63)" fill="#256ce2"/>
    <path d="M918.55,11.18l4.55.21c-.8-.32-1.84-.75.22-.84C917.58,9.62,924.5,11.27,918.55,11.18Z" transform="translate(-6.89 -9.63)" fill="#256ce2"/>
    <path d="M904.45,10.81c2.44-.17,0-.47.1-.66C903,10.46,902.63,10.54,904.45,10.81Z" transform="translate(-6.89 -9.63)" fill="#256ce2"/>
    <path d="M802.61,11.56l.24-.77C801,10.91,802.83,11.08,802.61,11.56Z" transform="translate(-6.89 -9.63)" fill="#256ce2"/>
    <polygon points="776.28 6.03 778.11 6.49 778.98 5.78 776.28 6.03" fill="#256ce2"/>
    <polygon points="764.74 0.65 765.56 0.53 762.42 0.83 764.74 0.65" fill="#256ce2"/>
    <path d="M600.6,11.63l.57.94C602.44,12.4,602.71,11.34,600.6,11.63Z" transform="translate(-6.89 -9.63)" fill="#256ce2"/>
    <path d="M526.77,12.65a6.14,6.14,0,0,0-4.16-.31C524.26,12.4,525.92,12.77,526.77,12.65Z" transform="translate(-6.89 -9.63)" fill="#256ce2"/>
    <polygon points="298.42 1.32 299.91 1.01 297.11 1.27 298.42 1.32" fill="#256ce2"/>
  </g>
</svg>
