<svg id="Layer_1" data-name="Layer 1" xmlns="http://www.w3.org/2000/svg" viewBox="0 0 95.46 20.23">
  <title>Header</title>
  <g>
    <path d="M18.27,3a1.32,1.32,0,0,1,.77.34,1.71,1.71,0,0,1,.41.57,1,1,0,0,1,.09.51c0,.15-.09.22-.2.2l-.94-.11L17.17,4.4l-1.25-.13-1-.1a6.34,6.34,0,0,1-.47,1.38q-.33.71-.85,1.58l-1.22,2q-.69,1.13-1.54,2.65T9,15.31q-1,2-2.1,4.62l1.9-.25a8.24,8.24,0,0,1,1.82,0,2.15,2.15,0,0,1,1.23.46q.42.37.12,1.24,0-.12,0-.29a.67.67,0,0,0-.13-.34,2.19,2.19,0,0,1-.44,1.39q-.41-.76-2.2-.79a48,48,0,0,0-4.81.23l-.66.13a3.78,3.78,0,0,1-.75.05,2.44,2.44,0,0,1-.67-.11A.51.51,0,0,1,2,21.24.64.64,0,0,1,1.62,21a1.09,1.09,0,0,1-.19-.47,1.32,1.32,0,0,1,0-.51.63.63,0,0,1,.21-.37q.14.43,1.26.53A12.49,12.49,0,0,0,5.68,20q.55-1.64,1.18-3.28t1.35-3.4Q7.6,14.5,7.07,15.62t-1,2.46a35.62,35.62,0,0,1,1.29-3.79q.78-2,1.67-3.73t1.77-3.26a25.44,25.44,0,0,1,1.55-2.36,3,3,0,0,1,.45-.55l.27-.26q-.9,0-1.75,0t-1.54.11a6,6,0,0,0-1.15.23q-.46.15-.54.35a1.07,1.07,0,0,1,0-.25.75.75,0,0,1,.22-.32,1.74,1.74,0,0,1,.51-.31,3.19,3.19,0,0,1,.91-.2,3.55,3.55,0,0,0-1.28.22,1,1,0,0,0-.67.71,1,1,0,0,1-.08-.55A1,1,0,0,1,8,3.53a2.1,2.1,0,0,0-.52.21l-.22.17A1,1,0,0,1,8,3.15a5.2,5.2,0,0,1,1.44-.36,13.74,13.74,0,0,1,1.83-.09l1.86,0q1.28,0,2.54.07T18.27,3ZM5.47,20a4.84,4.84,0,0,1-.89.1,12.35,12.35,0,0,1-1.27,0,4.46,4.46,0,0,1-1.08-.17q-.45-.14-.37-.44a.58.58,0,0,0,.28.22,2.86,2.86,0,0,0,.63.17A8.59,8.59,0,0,0,3.85,20Q4.51,20,5.47,20ZM2.55,21.2a2.5,2.5,0,0,0,1.14,0,12,12,0,0,1,1.37-.15,1.5,1.5,0,0,0-.4,0l-.72.05-.77.06Zm8.7-.56c.05-.08,0-.16-.08-.24a1.53,1.53,0,0,0-.63-.18,9.36,9.36,0,0,0-1.32,0q-.85,0-2.17.13l.91,0H9.34a11.8,11.8,0,0,1,1.28.1Q11.18,20.47,11.25,20.65ZM15.11,4.26a1.67,1.67,0,0,1-.18,1.13,19.84,19.84,0,0,1-.88,1.88q-.56,1.07-1.3,2.28l-1.42,2.33L10.1,13.94a13.32,13.32,0,0,0-.78,1.43A9,9,0,0,1,10,13.8q.5-1,1.17-2.11l1.38-2.34q.71-1.21,1.3-2.24t1-1.8A2.27,2.27,0,0,0,15.11,4.26Zm-5,7.11a18.06,18.06,0,0,1,.92-1.64q.6-1,1.22-2t1.1-1.92A5.89,5.89,0,0,0,14,4.38l-.64,1.09q-.48.81-1.07,1.85T11.09,9.45Q10.5,10.55,10.15,11.36ZM10.5,3.6q.15,0,.8,0h3q.75,0,1.1,0a2.43,2.43,0,0,0-.7-.12q-.52,0-1.21,0L12,3.51Q11.23,3.54,10.5,3.6Zm7.25-.71a2.14,2.14,0,0,1,1.66.35,1,1,0,0,1,.24,1.12c0-.07,0-.18-.06-.34a1.1,1.1,0,0,0-.2-.48,1.4,1.4,0,0,0-.55-.42A3,3,0,0,0,17.75,2.89Z" transform="translate(-1.29 -2.58)" fill="#2a75ff" stroke="#0d5ee5" stroke-miterlimit="10" stroke-width="0.25"/>
    <path d="M22.4,14a.46.46,0,0,1,.27-.22.35.35,0,0,1,.28,0,.36.36,0,0,1,.16.21.52.52,0,0,1,0,.35,8,8,0,0,1-.73,1.18,7.9,7.9,0,0,1-.86,1,5.52,5.52,0,0,1-.92.72,2.44,2.44,0,0,1-.93.36q-.1.17-.49.7a7.71,7.71,0,0,1-1,1.07,5.6,5.6,0,0,1-1.3.9,2.16,2.16,0,0,1-1.47.19,2,2,0,0,1-1-.52,2.39,2.39,0,0,1-.57-.94,3,3,0,0,0,.33.93,2.12,2.12,0,0,1-.57-1.08A6.22,6.22,0,0,1,13.4,17a9.29,9.29,0,0,1,.43-2.38,8.69,8.69,0,0,1,1.3-2.55,1.84,1.84,0,0,1-.33-.08.6.6,0,0,1-.24-.14.29.29,0,0,1-.08-.21.55.55,0,0,1,.13-.3q0,.25.47.26a.32.32,0,0,1-.31-.21.47.47,0,0,1,.07-.45.24.24,0,0,0,.09.34.3.3,0,0,0,.38,0c-.19,0-.29,0-.32-.11s0-.21.16-.32q-.13.27.08.23a4.37,4.37,0,0,0,.57-.17,4.1,4.1,0,0,1,.78-.2,1,1,0,0,1,.75.17.44.44,0,0,1,.22.42.7.7,0,0,1-.16.38A13,13,0,0,0,15.9,14,11.36,11.36,0,0,0,15,16.4a4.8,4.8,0,0,0-.14,1.92,1.23,1.23,0,0,0,.79,1.06.9.9,0,0,0,.6,0A2.94,2.94,0,0,0,17,18.9a6.33,6.33,0,0,0,.76-.68,6.42,6.42,0,0,0,.66-.81,2,2,0,0,1-.87-.89,1.16,1.16,0,0,0,.37.66,1.66,1.66,0,0,1-.61-.83A3.42,3.42,0,0,1,17,15a5.28,5.28,0,0,1,.32-1.64,5.55,5.55,0,0,1,1-1.68,2.6,2.6,0,0,1,1.58-1,1.27,1.27,0,0,1,1.25.49,1.06,1.06,0,0,0-.16-.28l-.16-.2a.89.89,0,0,1,.41.37,1.59,1.59,0,0,1,.18.53,2.38,2.38,0,0,1,0,.6c0,.21,0,.4-.06.56a1.82,1.82,0,0,1,0,.22c0,.07,0,.14,0,.22A13.52,13.52,0,0,1,20.85,15a10.4,10.4,0,0,1-.69,1.6,2.85,2.85,0,0,0,.67-.49,8.42,8.42,0,0,0,.64-.69,6.82,6.82,0,0,0,.54-.74Zm-5.58-2a16.39,16.39,0,0,0-1.58,2.77A9.37,9.37,0,0,0,14.55,17a3.7,3.7,0,0,0,0,1.56,1.15,1.15,0,0,0,.58.79,1.9,1.9,0,0,1-.53-1.09,4.27,4.27,0,0,1,0-1.35,7.66,7.66,0,0,1,.42-1.47q.29-.74.62-1.41t.63-1.2Q16.64,12.29,16.83,12Zm-.72,8.69a2.78,2.78,0,0,0,1-.35,6,6,0,0,0,1-.69,7.07,7.07,0,0,0,.85-.88,5.82,5.82,0,0,0,.62-.93,2.81,2.81,0,0,1-.45.93,5.11,5.11,0,0,1-1.87,1.6A3,3,0,0,1,16.11,20.68Zm.82-5.36a3.55,3.55,0,0,1,0-1.38,5.48,5.48,0,0,1,.45-1.42,4.62,4.62,0,0,1,.77-1.16,2.06,2.06,0,0,1,1-.63,4.14,4.14,0,0,0-.72.62,5.45,5.45,0,0,0-.76,1A6,6,0,0,0,17,13.75,3.79,3.79,0,0,0,16.93,15.33Zm2.5-2.77a1.69,1.69,0,0,0-.76.81,4.15,4.15,0,0,0-.4,1.27,3.67,3.67,0,0,0,0,1.26.92.92,0,0,0,.49.75,1.18,1.18,0,0,1-.46-.9,3.86,3.86,0,0,1,.09-1.27,5.13,5.13,0,0,1,.44-1.22A1.5,1.5,0,0,1,19.43,12.55Zm-.56,4q.29-.72.51-1.38T19.72,14a5.16,5.16,0,0,0,.14-.85q0-.32-.08-.38-.3-.16-.61.3a3.86,3.86,0,0,0-.5,1.14,4.81,4.81,0,0,0-.18,1.37A1.17,1.17,0,0,0,18.88,16.52Zm2.41-4.93a5.76,5.76,0,0,1-.15,1.31q-.17.78-.41,1.54c-.16.51-.32,1-.48,1.35s-.26.65-.32.74a5.57,5.57,0,0,0,.55-1.1q.26-.68.47-1.4a10,10,0,0,0,.29-1.38A4.68,4.68,0,0,0,21.29,11.59Z" transform="translate(-1.29 -2.58)" fill="#2a75ff" stroke="#0d5ee5" stroke-miterlimit="10" stroke-width="0.25"/>
    <path d="M29.3,14.16a.55.55,0,0,1,.24-.23.3.3,0,0,1,.25,0,.31.31,0,0,1,.16.18.45.45,0,0,1,0,.32q-.16.35-.48.93t-.74,1.25q-.41.67-.88,1.36t-.91,1.26a9.49,9.49,0,0,1-.86,1,1.69,1.69,0,0,1-.72.46,2.07,2.07,0,0,0,.36,0q-.79.36-1.06-.14a2.56,2.56,0,0,1,0-1.7,5.35,5.35,0,0,1-.38.61,4,4,0,0,1-.49.57,3.41,3.41,0,0,1-.56.44,1.56,1.56,0,0,1-.6.23,1.12,1.12,0,0,1-1-.22,1.88,1.88,0,0,1-.58-1,4.64,4.64,0,0,1-.1-1.59,8.3,8.3,0,0,1,.45-2,10.12,10.12,0,0,1,1.22-2.45,7,7,0,0,1,1.42-1.53,4.52,4.52,0,0,1,1.48-.78,5.5,5.5,0,0,1,1.36-.23A3.15,3.15,0,0,1,28,11a1.92,1.92,0,0,1,.59.27,1,1,0,0,1,.33.79,1.55,1.55,0,0,1-.22.78.91.91,0,0,0-.63-.87,3,3,0,0,0-1.5-.13,3.06,3.06,0,0,1,1,.1,1.84,1.84,0,0,1,.64.31.9.9,0,0,1,.31.42.82.82,0,0,1,0,.45,1.25,1.25,0,0,0-.6-.53,2.5,2.5,0,0,0-.87-.21,2.87,2.87,0,0,0-1.76.47,2.9,2.9,0,0,1,1-.41,2.36,2.36,0,0,1,.93,0,1.62,1.62,0,0,1,.7.32.86.86,0,0,1,.32.53,1.7,1.7,0,0,0-1-.41,2.41,2.41,0,0,0-1.41.24,4.7,4.7,0,0,0-1.54,1.28A7.85,7.85,0,0,0,23,17a9.36,9.36,0,0,0-.5,2c0,.41.07.61.31.62a1.34,1.34,0,0,0,.9-.69,7.36,7.36,0,0,0,.81-1.69,2.14,2.14,0,0,1,0,.24c0,.08,0,.15,0,.24q.5-1,.92-2a13.85,13.85,0,0,1,.76-1.55,1,1,0,0,1,.38-.43,1.16,1.16,0,0,1,.51-.16,3.61,3.61,0,0,0-.39.81q-.21.56-.47,1.31.34-.69.57-1.2a4.67,4.67,0,0,1,.52-.88l.31.12a1.08,1.08,0,0,1,.29.17,3.35,3.35,0,0,1-.29.82q-.23.5-.49,1t-.67,1.22q-.18.47-.34.92c-.11.3-.19.56-.26.78a5.22,5.22,0,0,0-.15.55c0,.14,0,.21,0,.21s.36-.17.67-.55.65-.86,1-1.42.74-1.14,1.1-1.73ZM23,16.37a14.62,14.62,0,0,0-.65,1.76,4.39,4.39,0,0,0-.2,1.17,1,1,0,0,0,.18.65.58.58,0,0,0,.45.21q-.43-.06-.46-.6a4.91,4.91,0,0,1,.1-1.19,9.19,9.19,0,0,1,.32-1.23Q22.94,16.57,23,16.37Zm3.89-5.44a5.39,5.39,0,0,0-1.34.28,5.56,5.56,0,0,0-1.08.51,4.18,4.18,0,0,0-.8.64,4.41,4.41,0,0,0-.54.67,4.59,4.59,0,0,1,.86-.85,7.17,7.17,0,0,1,1-.65,5.22,5.22,0,0,1,1-.41A5.92,5.92,0,0,1,26.88,10.93ZM23,20.14a1.74,1.74,0,0,0,.77-.53,4.57,4.57,0,0,0,.57-.8,5.63,5.63,0,0,0,.37-.78,4.88,4.88,0,0,0,.16-.48,8,8,0,0,1-1,1.73A4.75,4.75,0,0,1,23,20.14Zm1.07-5.26a4.23,4.23,0,0,1,.87-1,3.82,3.82,0,0,1,.9-.57A2.93,2.93,0,0,1,26.7,13a2.86,2.86,0,0,1,.63,0,3.74,3.74,0,0,0-1.81.59A6.87,6.87,0,0,0,24.1,14.89Zm2.75,0q-.23.45-.52,1.14t-.51,1.38a12.67,12.67,0,0,0-.35,1.24,1.63,1.63,0,0,0,0,.76,4.27,4.27,0,0,1,.18-1q.17-.64.42-1.33t.49-1.31Q26.74,15.2,26.85,14.9Z" transform="translate(-1.29 -2.58)" fill="#2a75ff" stroke="#0d5ee5" stroke-miterlimit="10" stroke-width="0.25"/>
    <path d="M37.94,14.47q-.23.52-.74,1.45t-1.14,1.91q-.63,1-1.29,1.91a8.52,8.52,0,0,1-1.2,1.39,2.59,2.59,0,0,0,.88-.78,11.42,11.42,0,0,1,.73-.91,5.9,5.9,0,0,1-1,1.39,2.65,2.65,0,0,1-.84.59A1,1,0,0,1,32,21.12a1.75,1.75,0,0,1-.28-1.19A9,9,0,0,1,32,18.28a18.36,18.36,0,0,1,.56-1.81q.34-.92.64-1.68c.2-.51.35-.93.47-1.26s.13-.52,0-.57-.47,0-1,.33a5.89,5.89,0,0,0-1.59,1.64,1.58,1.58,0,0,1,.69-.44,7.94,7.94,0,0,0-1.94,2.64,16.78,16.78,0,0,0-1,3.12.56.56,0,0,1-.24.27,1.06,1.06,0,0,1-.41.16.46.46,0,0,1-.37-.08.55.55,0,0,1-.15-.46,16.37,16.37,0,0,1,.32-2q.26-1.21.61-2.47t.76-2.33a6.29,6.29,0,0,1,.79-1.56,1.41,1.41,0,0,1,.28-.25,5.61,5.61,0,0,0-.32.61q-.19.41-.4.91c-.14.33-.27.67-.4,1a9,9,0,0,0-.3.95l.4-1q.22-.57.45-1.11t.47-1a2.07,2.07,0,0,1,.41-.57,2.23,2.23,0,0,1,.54-.12,1.41,1.41,0,0,1,.46,0,.56.56,0,0,1,.29.15.17.17,0,0,1,0,.22,3,3,0,0,0-.34.42q-.19.27-.38.61t-.39.71l-.35.67a10.53,10.53,0,0,1,1.28-1.84,8,8,0,0,1,1.28-1.19,3.88,3.88,0,0,1,1.17-.6,2.16,2.16,0,0,1,1-.08,1.11,1.11,0,0,1,.91,1.25,6.38,6.38,0,0,1-.74,2.63L35,15.34q-.27.61-.55,1.28T34,17.94L33.5,19.1q-.19.51-.29.83c-.06.22-.07.32,0,.32s.25-.1.43-.32a10.23,10.23,0,0,0,.65-.86q.37-.54.81-1.21t.84-1.36l.77-1.28.61-1a.47.47,0,0,1,.25-.22.42.42,0,0,1,.26,0,.23.23,0,0,1,.15.17A.47.47,0,0,1,37.94,14.47ZM28.65,20a11.94,11.94,0,0,1,.69-2.19,18.4,18.4,0,0,1,.91-1.86,13.22,13.22,0,0,1,.86-1.35,7,7,0,0,1,.55-.68,6.1,6.1,0,0,0-.64.74,13,13,0,0,0-1,1.51,15.8,15.8,0,0,0-.93,1.91A5.28,5.28,0,0,0,28.65,20Zm5-6.59q0,.1-.22.57L33,15.12q-.27.69-.55,1.51T32,18.21a10.14,10.14,0,0,0-.29,1.41,1.88,1.88,0,0,0,.06,1q-.35-.1-.36-.79a6.46,6.46,0,0,1,.29-1.72,19.32,19.32,0,0,1,.81-2.27A21.09,21.09,0,0,1,33.69,13.39Zm1,2a26.67,26.67,0,0,0-1.48,3.3Q32.79,20,33,20.31a3.92,3.92,0,0,1,.24-1q.23-.71.53-1.48t.59-1.46Q34.63,15.67,34.73,15.4ZM36,11.86a1.4,1.4,0,0,0-.08-.85.87.87,0,0,0-.45-.42,1.22,1.22,0,0,0-.65-.06,2.59,2.59,0,0,0-.72.23l.62-.12a1.4,1.4,0,0,1,.59,0,.84.84,0,0,1,.46.34A1.73,1.73,0,0,1,36,11.86Z" transform="translate(-1.29 -2.58)" fill="#2a75ff" stroke="#0d5ee5" stroke-miterlimit="10" stroke-width="0.25"/>
    <path d="M60.41,3.3a1.32,1.32,0,0,1,.78.32,1.71,1.71,0,0,1,.43.56,1,1,0,0,1,.1.51q0,.23-.2.2l-.94-.08-1.24-.1-1.25-.09-1-.07a6.36,6.36,0,0,1-.43,1.39q-.31.71-.81,1.6l-1.16,2q-.66,1.15-1.46,2.69t-1.73,3.57q-.93,2-2,4.68l1.9-.3a8.24,8.24,0,0,1,1.82-.09,2.15,2.15,0,0,1,1.24.42q.43.36.16,1.24c0-.08,0-.18,0-.29a.67.67,0,0,0-.14-.34,2.18,2.18,0,0,1-.4,1.4q-.43-.75-2.22-.73a48,48,0,0,0-4.8.36l-.66.15a3.78,3.78,0,0,1-.75.07,2.44,2.44,0,0,1-.67-.09.51.51,0,0,1-.38-.36.64.64,0,0,1-.38-.25,1.1,1.1,0,0,1-.2-.46,1.32,1.32,0,0,1,0-.51.63.63,0,0,1,.2-.37q.15.43,1.28.49a12.48,12.48,0,0,0,2.75-.21q.51-1.65,1.09-3.31t1.26-3.44q-.58,1.18-1.07,2.31t-.92,2.49a35.62,35.62,0,0,1,1.19-3.83q.73-2,1.57-3.78t1.67-3.3a25.54,25.54,0,0,1,1.48-2.4A3,3,0,0,1,55,4.82l.26-.26q-.9,0-1.75,0c-.57,0-1.08.09-1.54.15A6,6,0,0,0,50.83,5q-.45.16-.53.36a1.07,1.07,0,0,1,0-.25.75.75,0,0,1,.21-.33,1.74,1.74,0,0,1,.5-.33,3.19,3.19,0,0,1,.9-.23,3.55,3.55,0,0,0-1.28.25,1,1,0,0,0-.65.73,1,1,0,0,1-.1-.55,1,1,0,0,1,.25-.57,2.1,2.1,0,0,0-.51.23l-.21.17a1,1,0,0,1,.66-.78,5.2,5.2,0,0,1,1.42-.4,13.74,13.74,0,0,1,1.83-.14l1.86,0q1.27,0,2.54,0T60.41,3.3ZM48.09,20.59a4.83,4.83,0,0,1-.89.12,12.34,12.34,0,0,1-1.26,0,4.46,4.46,0,0,1-1.09-.14q-.45-.13-.38-.43a.58.58,0,0,0,.29.21,2.86,2.86,0,0,0,.63.15,8.59,8.59,0,0,0,1.07.08Q47.13,20.64,48.09,20.59ZM45.2,21.91a2.5,2.5,0,0,0,1.14,0,12,12,0,0,1,1.37-.19,1.49,1.49,0,0,0-.4,0l-.72.07-.77.09Zm8.68-.8c.05-.08,0-.16-.09-.24a1.53,1.53,0,0,0-.63-.16,9.36,9.36,0,0,0-1.32,0q-.85,0-2.16.19l.91-.05,1.37,0a11.78,11.78,0,0,1,1.28.06C53.62,20.91,53.83,21,53.88,21.11Zm3.4-16.49a1.68,1.68,0,0,1-.14,1.14,20,20,0,0,1-.83,1.9Q55.78,8.75,55.08,10l-1.35,2.37-1.19,2.09a13.17,13.17,0,0,0-.74,1.45,8.93,8.93,0,0,1,.63-1.59q.48-1,1.11-2.14l1.31-2.38q.67-1.23,1.23-2.28T57,5.67A2.27,2.27,0,0,0,57.29,4.62Zm-4.76,7.24a18.22,18.22,0,0,1,.88-1.66q.57-1,1.16-2t1-2a5.89,5.89,0,0,0,.56-1.44l-.61,1.1q-.46.83-1,1.88T53.41,9.92Q52.85,11,52.52,11.86Zm.13-7.78c.1,0,.37,0,.8-.05l1.45,0,1.55,0q.75,0,1.1,0a2.43,2.43,0,0,0-.7-.1q-.52,0-1.21,0L54.17,4Q53.38,4,52.66,4.09Zm7.23-.91a2.14,2.14,0,0,1,1.67.3,1,1,0,0,1,.27,1.11c0-.07,0-.18-.07-.34a1.11,1.11,0,0,0-.22-.47A1.39,1.39,0,0,0,61,3.37,3,3,0,0,0,59.88,3.18Z" transform="translate(-1.29 -2.58)" fill="#2a75ff" stroke="#0d5ee5" stroke-miterlimit="10" stroke-width="0.25"/>
    <path d="M64.85,14.18a.46.46,0,0,1,.26-.23.35.35,0,0,1,.28,0,.36.36,0,0,1,.17.21.52.52,0,0,1,0,.35,8,8,0,0,1-.69,1.19,7.85,7.85,0,0,1-.83,1,5.52,5.52,0,0,1-.9.75,2.44,2.44,0,0,1-.92.38q-.1.18-.47.72a7.71,7.71,0,0,1-.94,1.1,5.6,5.6,0,0,1-1.27.93,2.16,2.16,0,0,1-1.47.23,2,2,0,0,1-1-.49,2.4,2.4,0,0,1-.6-.92,3,3,0,0,0,.36.92,2.12,2.12,0,0,1-.6-1.06,6.2,6.2,0,0,1-.24-1.87A9.33,9.33,0,0,1,56.3,15a8.67,8.67,0,0,1,1.23-2.58,1.84,1.84,0,0,1-.33-.07.6.6,0,0,1-.24-.14.29.29,0,0,1-.09-.21.55.55,0,0,1,.12-.3q0,.25.48.25a.31.31,0,0,1-.32-.2.47.47,0,0,1,.06-.45.24.24,0,0,0,.1.34.3.3,0,0,0,.38,0q-.28.05-.33-.1t.15-.33q-.13.28.09.22a4.47,4.47,0,0,0,.56-.19,4.08,4.08,0,0,1,.78-.22,1,1,0,0,1,.76.14.44.44,0,0,1,.23.41.71.71,0,0,1-.15.39,13.07,13.07,0,0,0-1.44,2.37,11.39,11.39,0,0,0-.84,2.38,4.81,4.81,0,0,0-.09,1.92,1.23,1.23,0,0,0,.82,1,.9.9,0,0,0,.59-.07,2.93,2.93,0,0,0,.72-.44,6.74,6.74,0,0,0,1.38-1.53A2,2,0,0,1,60,16.8a1.16,1.16,0,0,0,.38.65,1.66,1.66,0,0,1-.64-.81,3.42,3.42,0,0,1-.26-1.36,5.28,5.28,0,0,1,.28-1.65,5.55,5.55,0,0,1,.93-1.71,2.6,2.6,0,0,1,1.55-1,1.27,1.27,0,0,1,1.26.45,1,1,0,0,0-.17-.27l-.16-.2a.89.89,0,0,1,.42.36,1.57,1.57,0,0,1,.19.52,2.43,2.43,0,0,1,0,.6c0,.21,0,.4,0,.56a1.92,1.92,0,0,1,0,.23c0,.07,0,.14,0,.23a13.45,13.45,0,0,1-.44,1.79,10.26,10.26,0,0,1-.64,1.62,2.85,2.85,0,0,0,.65-.51,8.17,8.17,0,0,0,.62-.71,6.83,6.83,0,0,0,.52-.76Q64.7,14.46,64.85,14.18Zm-5.63-1.88a16.39,16.39,0,0,0-1.51,2.81,9.35,9.35,0,0,0-.63,2.24,3.69,3.69,0,0,0,.07,1.56,1.15,1.15,0,0,0,.6.77,1.9,1.9,0,0,1-.56-1.07,4.29,4.29,0,0,1,0-1.35,7.7,7.7,0,0,1,.38-1.48q.27-.75.58-1.43t.6-1.22Q59,12.61,59.22,12.31ZM58.74,21a2.78,2.78,0,0,0,1-.38,6,6,0,0,0,1-.72,7.07,7.07,0,0,0,.83-.91,5.85,5.85,0,0,0,.6-.94,2.81,2.81,0,0,1-.42.94,5.12,5.12,0,0,1-1.82,1.65A3,3,0,0,1,58.74,21Zm.67-5.38a3.56,3.56,0,0,1,0-1.37,5.52,5.52,0,0,1,.41-1.43,4.62,4.62,0,0,1,.73-1.18,2.05,2.05,0,0,1,.94-.66,4.13,4.13,0,0,0-.7.64A5.45,5.45,0,0,0,60,12.69a6,6,0,0,0-.53,1.37A3.79,3.79,0,0,0,59.41,15.63Zm2.42-2.84a1.69,1.69,0,0,0-.74.83,4.17,4.17,0,0,0-.37,1.28,3.67,3.67,0,0,0,0,1.26.92.92,0,0,0,.51.73A1.19,1.19,0,0,1,60.8,16a3.88,3.88,0,0,1,.05-1.27,5.16,5.16,0,0,1,.41-1.23A1.5,1.5,0,0,1,61.84,12.79Zm-.45,4q.27-.73.47-1.39t.3-1.19a5.32,5.32,0,0,0,.12-.85q0-.32-.09-.37-.3-.15-.6.32a3.83,3.83,0,0,0-.47,1.15A4.79,4.79,0,0,0,61,15.81,1.17,1.17,0,0,0,61.39,16.77Zm2.27-5a5.71,5.71,0,0,1-.11,1.31,15.69,15.69,0,0,1-.36,1.55c-.15.51-.29,1-.44,1.37s-.25.65-.3.75A5.54,5.54,0,0,0,63,15.64q.24-.69.43-1.42a9.93,9.93,0,0,0,.25-1.39A4.68,4.68,0,0,0,63.66,11.77Z" transform="translate(-1.29 -2.58)" fill="#2a75ff" stroke="#0d5ee5" stroke-miterlimit="10" stroke-width="0.25"/>
    <path d="M71.75,14.12a.55.55,0,0,1,.24-.24.3.3,0,0,1,.25,0,.31.31,0,0,1,.17.17.45.45,0,0,1,0,.32q-.15.35-.45.94t-.7,1.27q-.39.68-.84,1.39t-.88,1.29a9.49,9.49,0,0,1-.83,1,1.68,1.68,0,0,1-.7.48,2.07,2.07,0,0,0,.35-.05q-.78.38-1.06-.11a2.56,2.56,0,0,1,0-1.7,5.35,5.35,0,0,1-.36.62,3.93,3.93,0,0,1-.47.58,3.41,3.41,0,0,1-.55.46,1.56,1.56,0,0,1-.59.24,1.12,1.12,0,0,1-1-.19,1.88,1.88,0,0,1-.6-1A4.64,4.64,0,0,1,63.53,18a8.28,8.28,0,0,1,.4-2,10.1,10.1,0,0,1,1.15-2.49,7,7,0,0,1,1.38-1.57,4.53,4.53,0,0,1,1.46-.82,5.5,5.5,0,0,1,1.35-.27,3.15,3.15,0,0,1,1.06.1,1.93,1.93,0,0,1,.59.25,1,1,0,0,1,.35.78,1.56,1.56,0,0,1-.2.79.91.91,0,0,0-.65-.85,3,3,0,0,0-1.5-.09,3.06,3.06,0,0,1,1,.07,1.84,1.84,0,0,1,.65.29.9.9,0,0,1,.32.41.83.83,0,0,1,0,.45,1.25,1.25,0,0,0-.61-.52,2.49,2.49,0,0,0-.87-.19,2.87,2.87,0,0,0-1.74.52,2.9,2.9,0,0,1,1-.44,2.36,2.36,0,0,1,.93,0,1.62,1.62,0,0,1,.71.3.86.86,0,0,1,.33.52,1.7,1.7,0,0,0-1-.39,2.41,2.41,0,0,0-1.41.28,4.69,4.69,0,0,0-1.51,1.32,7.85,7.85,0,0,0-1.27,2.73,9.32,9.32,0,0,0-.45,2c0,.41.09.61.32.61a1.34,1.34,0,0,0,.88-.71A7.37,7.37,0,0,0,67,17.34a2,2,0,0,1,0,.24c0,.08,0,.15,0,.24q.47-1,.86-2a13.86,13.86,0,0,1,.71-1.57,1,1,0,0,1,.37-.44,1.16,1.16,0,0,1,.5-.17,3.65,3.65,0,0,0-.37.82q-.19.57-.44,1.32.32-.7.54-1.22a4.64,4.64,0,0,1,.49-.9l.32.11a1.06,1.06,0,0,1,.29.16,3.36,3.36,0,0,1-.27.83q-.22.5-.47,1T68.86,17q-.17.48-.32.93c-.1.3-.18.56-.24.79a5.21,5.21,0,0,0-.13.55c0,.14,0,.21,0,.21s.35-.18.65-.57.62-.88,1-1.45.7-1.16,1-1.76ZM65.5,16.5a14.52,14.52,0,0,0-.6,1.78,4.42,4.42,0,0,0-.17,1.18,1,1,0,0,0,.2.65.58.58,0,0,0,.46.2q-.43,0-.47-.58A4.93,4.93,0,0,1,65,18.53a9.26,9.26,0,0,1,.29-1.24C65.39,16.9,65.47,16.64,65.5,16.5ZM69.24,11a5.38,5.38,0,0,0-1.33.32,5.53,5.53,0,0,0-1.06.54,4.18,4.18,0,0,0-.79.66,4.37,4.37,0,0,0-.52.68,4.54,4.54,0,0,1,.83-.87,7.19,7.19,0,0,1,1-.67,5.25,5.25,0,0,1,1-.44A6,6,0,0,1,69.24,11Zm-3.59,9.32a1.74,1.74,0,0,0,.75-.55,4.54,4.54,0,0,0,.55-.82,5.58,5.58,0,0,0,.34-.79,4.72,4.72,0,0,0,.15-.49,8,8,0,0,1-.94,1.76A4.78,4.78,0,0,1,65.64,20.28ZM66.57,15a4.21,4.21,0,0,1,.84-1.07,3.82,3.82,0,0,1,.89-.6,2.93,2.93,0,0,1,.81-.26,2.86,2.86,0,0,1,.63,0,3.74,3.74,0,0,0-1.79.64A6.87,6.87,0,0,0,66.57,15Zm2.75-.06q-.22.45-.49,1.16t-.47,1.39A12.81,12.81,0,0,0,68,18.74a1.61,1.61,0,0,0,0,.76,4.27,4.27,0,0,1,.15-1q.16-.64.39-1.34T69,15.85Q69.22,15.23,69.31,14.93Z" transform="translate(-1.29 -2.58)" fill="#2a75ff" stroke="#0d5ee5" stroke-miterlimit="10" stroke-width="0.25"/>
    <path d="M80.39,14.19q-.22.53-.7,1.47T78.6,17.61q-.6,1-1.24,1.95A8.55,8.55,0,0,1,76.2,21a2.59,2.59,0,0,0,.86-.8,11.41,11.41,0,0,1,.7-.93,5.9,5.9,0,0,1-.94,1.42,2.65,2.65,0,0,1-.82.62A1,1,0,0,1,74.68,21a1.75,1.75,0,0,1-.31-1.18,8.83,8.83,0,0,1,.23-1.65,18.09,18.09,0,0,1,.51-1.82q.31-.93.59-1.7c.18-.51.33-.94.43-1.27s.11-.53,0-.58-.47,0-1,.35a5.89,5.89,0,0,0-1.55,1.69,1.58,1.58,0,0,1,.67-.46,7.93,7.93,0,0,0-1.86,2.69,16.78,16.78,0,0,0-1,3.15.56.56,0,0,1-.24.28,1.06,1.06,0,0,1-.4.17.46.46,0,0,1-.37-.07.56.56,0,0,1-.16-.46,16.5,16.5,0,0,1,.26-2q.22-1.21.55-2.48t.7-2.35a6.28,6.28,0,0,1,.74-1.59,1.44,1.44,0,0,1,.27-.25,5.71,5.71,0,0,0-.3.62q-.18.42-.38.92c-.13.34-.25.68-.38,1a9.19,9.19,0,0,0-.28,1l.38-1q.21-.58.42-1.12t.44-1a2.07,2.07,0,0,1,.39-.58,2.23,2.23,0,0,1,.54-.13,1.41,1.41,0,0,1,.47,0,.56.56,0,0,1,.29.15.17.17,0,0,1,0,.22,3,3,0,0,0-.33.43q-.18.28-.37.62t-.37.72l-.33.68a10.5,10.5,0,0,1,1.23-1.87,8,8,0,0,1,1.25-1.22,3.88,3.88,0,0,1,1.16-.63,2.16,2.16,0,0,1,1-.11,1.11,1.11,0,0,1,.94,1.22A6.39,6.39,0,0,1,78,14.07l-.45,1.07q-.25.62-.52,1.3t-.51,1.33l-.42,1.17q-.18.52-.26.84c-.06.22-.06.33,0,.32s.24-.11.42-.33a10.34,10.34,0,0,0,.63-.87q.36-.55.77-1.23t.81-1.38l.73-1.3.58-1a.47.47,0,0,1,.25-.23.41.41,0,0,1,.26,0,.23.23,0,0,1,.16.17A.47.47,0,0,1,80.39,14.19ZM71.25,20a12,12,0,0,1,.62-2.21,18.2,18.2,0,0,1,.85-1.89,13.05,13.05,0,0,1,.82-1.38,7,7,0,0,1,.53-.7,6,6,0,0,0-.62.76,12.85,12.85,0,0,0-1,1.54A15.72,15.72,0,0,0,71.63,18,5.27,5.27,0,0,0,71.25,20Zm4.86-6.73q0,.1-.2.58L75.48,15q-.25.69-.5,1.52t-.44,1.59a10.07,10.07,0,0,0-.25,1.42,1.88,1.88,0,0,0,.09,1Q74,20.39,74,19.7A6.43,6.43,0,0,1,74.23,18,19.34,19.34,0,0,1,75,15.68,21,21,0,0,1,76.11,13.23Zm1.09,2a26.9,26.9,0,0,0-1.39,3.34q-.42,1.32-.24,1.62a3.9,3.9,0,0,1,.21-1q.22-.72.49-1.5t.55-1.47Q77.11,15.48,77.21,15.21Zm1.19-3.57a1.39,1.39,0,0,0-.1-.85.87.87,0,0,0-.46-.4,1.22,1.22,0,0,0-.65,0,2.6,2.6,0,0,0-.71.25l.61-.14a1.41,1.41,0,0,1,.59,0,.84.84,0,0,1,.47.33A1.73,1.73,0,0,1,78.4,11.63Z" transform="translate(-1.29 -2.58)" fill="#2a75ff" stroke="#0d5ee5" stroke-miterlimit="10" stroke-width="0.25"/>
    <path d="M87.79,13.8a.53.53,0,0,1,.25-.24.37.37,0,0,1,.26,0,.27.27,0,0,1,.17.17.49.49,0,0,1,0,.34,6.9,6.9,0,0,1-.6,1.25A6.12,6.12,0,0,1,87,16.34a3.77,3.77,0,0,1-.93.72,2.11,2.11,0,0,1-1,.27,11.15,11.15,0,0,1-.85,1.33,6.28,6.28,0,0,1-1,1.06,3.75,3.75,0,0,1-1.09.65,1.93,1.93,0,0,1-1.1.1,2.13,2.13,0,0,1-1.4-.83A3.71,3.71,0,0,1,79.07,18a6.86,6.86,0,0,1,0-2.1,8.35,8.35,0,0,1,.62-2.16,6.85,6.85,0,0,1,1.18-1.84,4.16,4.16,0,0,1,1.67-1.15,3.56,3.56,0,0,0-1.11.42,3.83,3.83,0,0,0-1,.87,2.69,2.69,0,0,1,1.38-1.3,4.13,4.13,0,0,1,1.88-.34,3.4,3.4,0,0,1,1.71.55,2,2,0,0,1,.9,1.42,4.55,4.55,0,0,1,0,1.66,11.77,11.77,0,0,1-.74,2.41,1.75,1.75,0,0,0,.77-.48,5.51,5.51,0,0,0,.66-.8q.29-.43.51-.81C87.65,14.08,87.74,13.9,87.79,13.8Zm-8.62,5a2.49,2.49,0,0,0,.51,1,2.1,2.1,0,0,0,1,.7,2.61,2.61,0,0,0,1.49,0,4.66,4.66,0,0,0,1.87-1.24,3.32,3.32,0,0,1-1.3,1.22,3,3,0,0,1-1.56.36,2.31,2.31,0,0,1-1.36-.53A2.09,2.09,0,0,1,79.17,18.77Zm.1-2.48a4.87,4.87,0,0,0,.2,2.41,2.58,2.58,0,0,0,1,1.22,2.24,2.24,0,0,1-.73-.91,4.49,4.49,0,0,1-.33-1.09,7.43,7.43,0,0,1-.09-1Zm1.88,2.91a1.05,1.05,0,0,0,.73,0,2.58,2.58,0,0,0,.75-.47,4.27,4.27,0,0,0,.7-.79,9.06,9.06,0,0,0,.62-1,1.25,1.25,0,0,1-.7-.57,2.19,2.19,0,0,1-.3-1,2.73,2.73,0,0,0,0,.75,2.17,2.17,0,0,1-.19-1.25,3,3,0,0,1,1-1.75,3.3,3.3,0,0,1,.53-.39l-.2-.12a1.46,1.46,0,0,0-1.29.25A4.24,4.24,0,0,0,81.7,14a6.68,6.68,0,0,0-.31.63,8.54,8.54,0,0,0-.36,1,5.74,5.74,0,0,0-.23,1.13,3.39,3.39,0,0,0,.07,1.17,1.17,1.17,0,0,1-.26-.52,3.55,3.55,0,0,0,.06,1.17A.78.78,0,0,0,81.15,19.2Zm2.52-7a.86.86,0,0,0-.75,0,2.63,2.63,0,0,0-.76.54,4,4,0,0,0-.62.81,2.6,2.6,0,0,0-.34.83,3.92,3.92,0,0,1,1.27-1.71A2.43,2.43,0,0,1,83.67,12.22Zm-1.76,7.19a2.34,2.34,0,0,0,.83-.38,3.3,3.3,0,0,0,.63-.59,3.23,3.23,0,0,0,.42-.65,2.27,2.27,0,0,0,.2-.6,4.61,4.61,0,0,1-.77,1.25A3.66,3.66,0,0,1,81.91,19.41ZM84.11,16a1,1,0,0,1-.25-.59,1.91,1.91,0,0,1,.06-.75,2.14,2.14,0,0,1,.32-.68,1.23,1.23,0,0,1,.57-.44.92.92,0,0,0-.61.31,1.69,1.69,0,0,0-.38.67,1.79,1.79,0,0,0-.06.79A1.23,1.23,0,0,0,84.11,16Zm.25-.06a4.94,4.94,0,0,0,.32-1.2,6.51,6.51,0,0,0,.08-1,1.5,1.5,0,0,0-.41.45,2.13,2.13,0,0,0-.26.61,1.43,1.43,0,0,0,0,.63A1,1,0,0,0,84.36,16Zm2.06-2.45a3.05,3.05,0,0,0,0-1.09,2.91,2.91,0,0,0-.26-.79,2.42,2.42,0,0,0-.35-.53,2.16,2.16,0,0,0-.28-.27.83.83,0,0,1,.52.3,2,2,0,0,1,.35.64,2.51,2.51,0,0,1,.13.85A2.86,2.86,0,0,1,86.42,13.53Z" transform="translate(-1.29 -2.58)" fill="#2a75ff" stroke="#0d5ee5" stroke-miterlimit="10" stroke-width="0.25"/>
    <path d="M95.9,13.54a.46.46,0,0,1,.26-.23.35.35,0,0,1,.28,0,.36.36,0,0,1,.17.21.52.52,0,0,1,0,.35,8,8,0,0,1-.67,1.21,7.85,7.85,0,0,1-.81,1,5.52,5.52,0,0,1-.89.76,2.44,2.44,0,0,1-.91.4q-.1.18-.46.73a7.71,7.71,0,0,1-.92,1.11,5.6,5.6,0,0,1-1.25,1,2.16,2.16,0,0,1-1.46.26,2,2,0,0,1-1-.47,2.4,2.4,0,0,1-.62-.91,3,3,0,0,0,.38.92,2.12,2.12,0,0,1-.62-1A6.2,6.2,0,0,1,87.05,17a9.33,9.33,0,0,1,.32-2.4A8.67,8.67,0,0,1,88.55,12a1.84,1.84,0,0,1-.33-.07.6.6,0,0,1-.24-.13.29.29,0,0,1-.09-.21.55.55,0,0,1,.12-.3q0,.25.48.24a.31.31,0,0,1-.32-.19.47.47,0,0,1,.05-.45.24.24,0,0,0,.11.33.3.3,0,0,0,.38,0q-.28.06-.33-.09t.14-.33q-.12.28.09.22a4.47,4.47,0,0,0,.56-.2,4.08,4.08,0,0,1,.77-.23,1,1,0,0,1,.76.13.44.44,0,0,1,.24.41.71.71,0,0,1-.14.39,13.07,13.07,0,0,0-1.4,2.4,11.39,11.39,0,0,0-.79,2.4,4.81,4.81,0,0,0-.05,1.93,1.23,1.23,0,0,0,.84,1,.9.9,0,0,0,.59-.08,2.93,2.93,0,0,0,.71-.46A6.74,6.74,0,0,0,92,17.11a2,2,0,0,1-.91-.85,1.16,1.16,0,0,0,.4.64,1.66,1.66,0,0,1-.65-.79,3.42,3.42,0,0,1-.29-1.35,5.28,5.28,0,0,1,.24-1.66,5.55,5.55,0,0,1,.9-1.73,2.6,2.6,0,0,1,1.53-1,1.27,1.27,0,0,1,1.27.43,1,1,0,0,0-.17-.27l-.17-.19a.89.89,0,0,1,.43.35,1.57,1.57,0,0,1,.2.52,2.43,2.43,0,0,1,0,.6q0,.31,0,.56a1.93,1.93,0,0,1,0,.23c0,.07,0,.14,0,.23a13.45,13.45,0,0,1-.4,1.8,10.26,10.26,0,0,1-.61,1.63,2.86,2.86,0,0,0,.64-.52A8.16,8.16,0,0,0,95,15a6.84,6.84,0,0,0,.51-.77Q95.76,13.82,95.9,13.54Zm-5.67-1.76a16.4,16.4,0,0,0-1.45,2.84,9.34,9.34,0,0,0-.58,2.25,3.69,3.69,0,0,0,.1,1.56,1.15,1.15,0,0,0,.61.76,1.9,1.9,0,0,1-.58-1.06,4.28,4.28,0,0,1,0-1.35,7.7,7.7,0,0,1,.35-1.48q.26-.76.55-1.44t.57-1.23Q90.06,12.09,90.23,11.78Zm-.29,8.71a2.78,2.78,0,0,0,1-.4,6,6,0,0,0,.94-.74,7.08,7.08,0,0,0,.81-.92,5.85,5.85,0,0,0,.58-1,2.81,2.81,0,0,1-.4.95,5.12,5.12,0,0,1-1.79,1.69A3,3,0,0,1,89.94,20.49Zm.56-5.39a3.56,3.56,0,0,1-.07-1.37,5.52,5.52,0,0,1,.38-1.44,4.62,4.62,0,0,1,.71-1.19,2.05,2.05,0,0,1,.92-.68,4.14,4.14,0,0,0-.69.66A5.45,5.45,0,0,0,91,12.15a6,6,0,0,0-.5,1.38A3.79,3.79,0,0,0,90.5,15.1Zm2.36-2.89a1.69,1.69,0,0,0-.72.85,4.17,4.17,0,0,0-.34,1.29,3.67,3.67,0,0,0,.07,1.26.92.92,0,0,0,.53.72,1.19,1.19,0,0,1-.5-.87,3.88,3.88,0,0,1,0-1.28,5.15,5.15,0,0,1,.38-1.24A1.5,1.5,0,0,1,92.86,12.21Zm-.37,4q.26-.73.44-1.4t.28-1.2a5.32,5.32,0,0,0,.1-.85q0-.32-.1-.37-.31-.14-.59.33a3.83,3.83,0,0,0-.45,1.16,4.79,4.79,0,0,0-.11,1.38A1.17,1.17,0,0,0,92.5,16.2Zm2.17-5a5.71,5.71,0,0,1-.09,1.32A15.71,15.71,0,0,1,94.25,14c-.14.51-.27,1-.41,1.38s-.23.66-.28.76a5.54,5.54,0,0,0,.5-1.13q.23-.69.4-1.42a9.93,9.93,0,0,0,.22-1.39A4.68,4.68,0,0,0,94.67,11.16Z" transform="translate(-1.29 -2.58)" fill="#2a75ff" stroke="#0d5ee5" stroke-miterlimit="10" stroke-width="0.25"/>
  </g>
</svg>
