<?xml version="1.0" encoding="utf-8"?>
<!-- Generator: Adobe Illustrator 22.0.1, SVG Export Plug-In . SVG Version: 6.00 Build 0)  -->
<svg version="1.1" id="Layer_1" xmlns="http://www.w3.org/2000/svg" xmlns:xlink="http://www.w3.org/1999/xlink" x="0px" y="0px"
	 viewBox="0 0 100 25" style="enable-background:new 0 0 100 25;" xml:space="preserve">
<style type="text/css">
	.st0{fill:#2A75FF;stroke:#0D5EE5;stroke-width:0.5;stroke-miterlimit:10;}
</style>
<g>
	<g>
		<path class="st0" d="M17.7,1.9c0.3,0,0.6,0.2,0.8,0.4c0.2,0.2,0.3,0.4,0.4,0.6C19,3,19,3.2,19,3.4c0,0.2-0.1,0.2-0.2,0.2
			c-0.2,0-0.6-0.1-1-0.1c-0.4-0.1-0.8-0.1-1.3-0.1c-0.5,0-0.9-0.1-1.3-0.1c-0.4,0-0.8-0.1-1-0.1C14.1,3.6,14,4,13.7,4.5
			c-0.2,0.5-0.5,1-0.9,1.6c-0.4,0.6-0.8,1.3-1.3,2.1C11.1,9,10.6,10,10,11c-0.6,1.1-1.2,2.3-1.9,3.7c-0.7,1.4-1.4,3-2.2,4.8
			c0.6-0.1,1.3-0.2,2-0.3c0.7-0.1,1.3-0.1,1.9,0c0.6,0.1,1,0.2,1.3,0.5c0.3,0.3,0.3,0.7,0.1,1.3c0-0.1,0-0.2,0-0.3
			c0-0.1-0.1-0.2-0.1-0.4c0.1,0.4-0.1,0.8-0.5,1.4c-0.3-0.5-1-0.8-2.3-0.8c-1.2,0-2.9,0.1-5,0.2c-0.2,0-0.4,0.1-0.7,0.1
			c-0.3,0-0.5,0.1-0.8,0.1c-0.3,0-0.5,0-0.7-0.1c-0.2-0.1-0.3-0.2-0.4-0.4c-0.2,0-0.3-0.1-0.4-0.3c-0.1-0.1-0.2-0.3-0.2-0.5
			c0-0.2,0-0.4,0-0.5c0-0.2,0.1-0.3,0.2-0.4c0.1,0.3,0.5,0.5,1.3,0.5c0.8,0.1,1.7,0,2.9-0.1c0.4-1.1,0.8-2.3,1.2-3.4
			c0.4-1.1,0.9-2.3,1.4-3.5C6.8,13.4,6.4,14.2,6,15c-0.4,0.8-0.7,1.6-1,2.6c0.4-1.3,0.8-2.6,1.3-3.9c0.5-1.4,1.1-2.6,1.7-3.9
			c0.6-1.2,1.2-2.4,1.8-3.4c0.6-1,1.1-1.8,1.6-2.5c0.1-0.2,0.3-0.4,0.5-0.6c0.2-0.2,0.3-0.2,0.3-0.3c-0.6,0-1.2,0-1.8,0
			c-0.6,0-1.1,0.1-1.6,0.1C8.4,3.2,8,3.3,7.7,3.4C7.4,3.5,7.2,3.6,7.1,3.7c0-0.1,0-0.2,0-0.3c0-0.1,0.1-0.2,0.2-0.3
			C7.5,3,7.7,2.9,7.9,2.8c0.2-0.1,0.5-0.2,0.9-0.2c-0.5,0-1,0.1-1.3,0.2C7.2,3,6.9,3.2,6.8,3.6C6.7,3.4,6.7,3.2,6.7,3
			c0-0.2,0.1-0.4,0.3-0.6C6.8,2.5,6.6,2.6,6.5,2.6C6.4,2.7,6.3,2.8,6.3,2.8C6.3,2.5,6.6,2.2,7,2c0.4-0.2,0.9-0.3,1.5-0.4
			C9,1.6,9.7,1.6,10.4,1.6c0.7,0,1.3,0,1.9,0c0.9,0,1.8,0,2.6,0.1C15.8,1.7,16.7,1.8,17.7,1.9z M4.4,19.5c-0.2,0-0.5,0.1-0.9,0.1
			c-0.4,0-0.9,0-1.3,0c-0.4,0-0.8-0.1-1.1-0.2c-0.3-0.1-0.4-0.2-0.4-0.5c0,0.1,0.1,0.2,0.3,0.2c0.1,0.1,0.4,0.1,0.7,0.2
			c0.3,0.1,0.7,0.1,1.1,0.1C3.1,19.5,3.7,19.5,4.4,19.5z M1.3,20.8c0.3,0.1,0.7,0.1,1.2,0c0.5-0.1,1-0.1,1.4-0.2c-0.1,0-0.2,0-0.4,0
			c-0.2,0-0.5,0-0.8,0.1c-0.3,0-0.5,0-0.8,0.1C1.7,20.8,1.5,20.8,1.3,20.8z M10.4,20.2c0.1-0.1,0-0.2-0.1-0.2
			c-0.1-0.1-0.3-0.1-0.7-0.2c-0.3,0-0.8-0.1-1.4,0c-0.6,0-1.3,0.1-2.3,0.1c0.2,0,0.5,0,0.9,0c0.5,0,0.9,0,1.4,0c0.5,0,0.9,0,1.3,0.1
			C10.1,20,10.3,20.1,10.4,20.2z M14.4,3.2c0.1,0.2,0,0.6-0.2,1.2c-0.2,0.6-0.5,1.2-0.9,2c-0.4,0.7-0.8,1.5-1.3,2.4
			c-0.5,0.8-1,1.6-1.5,2.4c-0.5,0.8-0.9,1.5-1.3,2.1c-0.4,0.6-0.7,1.1-0.8,1.5c0.1-0.4,0.3-1,0.7-1.6c0.3-0.7,0.8-1.4,1.2-2.2
			c0.5-0.8,0.9-1.6,1.4-2.4c0.5-0.8,0.9-1.6,1.3-2.3c0.4-0.7,0.7-1.3,1-1.9C14.3,3.7,14.4,3.4,14.4,3.2z M9.2,10.6
			c0.2-0.5,0.5-1,1-1.7c0.4-0.7,0.8-1.4,1.3-2.1c0.4-0.7,0.8-1.4,1.1-2c0.3-0.6,0.5-1.1,0.6-1.5c-0.1,0.2-0.3,0.6-0.7,1.1
			c-0.3,0.6-0.7,1.2-1.1,1.9c-0.4,0.7-0.8,1.5-1.2,2.2C9.8,9.3,9.5,10,9.2,10.6z M9.6,2.5c0.1,0,0.4,0,0.8,0c0.5,0,1,0,1.5,0
			c0.6,0,1.1,0,1.6,0c0.5,0,0.9,0,1.1,0c-0.1-0.1-0.4-0.1-0.7-0.1c-0.4,0-0.8,0-1.3,0c-0.5,0-1,0-1.5,0C10.6,2.4,10.1,2.4,9.6,2.5z
			 M17.1,1.8c0.8-0.1,1.4,0.1,1.7,0.4c0.3,0.3,0.4,0.7,0.3,1.2c0-0.1,0-0.2-0.1-0.4c0-0.2-0.1-0.3-0.2-0.5c-0.1-0.2-0.3-0.3-0.6-0.4
			C18,1.9,17.6,1.8,17.1,1.8z"/>
		<path class="st0" d="M22,13.3c0.1-0.1,0.2-0.2,0.3-0.2c0.1,0,0.2,0,0.3,0c0.1,0,0.1,0.1,0.2,0.2c0,0.1,0,0.2,0,0.4
			c-0.2,0.4-0.5,0.8-0.8,1.2c-0.3,0.4-0.6,0.7-0.9,1c-0.3,0.3-0.6,0.5-1,0.8c-0.3,0.2-0.6,0.3-1,0.4c-0.1,0.1-0.2,0.4-0.5,0.7
			c-0.3,0.4-0.6,0.7-1,1.1c-0.4,0.4-0.9,0.7-1.3,0.9c-0.5,0.3-1,0.3-1.5,0.2c-0.4-0.1-0.8-0.3-1.1-0.5c-0.3-0.3-0.5-0.6-0.6-1
			c0.1,0.4,0.2,0.8,0.3,1c-0.2-0.2-0.4-0.6-0.6-1.1c-0.2-0.5-0.2-1.2-0.2-2c0-0.8,0.2-1.6,0.5-2.5c0.3-0.9,0.7-1.8,1.4-2.6
			c-0.1,0-0.2,0-0.3-0.1c-0.1,0-0.2-0.1-0.2-0.1c-0.1-0.1-0.1-0.1-0.1-0.2c0-0.1,0-0.2,0.1-0.3c0,0.2,0.2,0.3,0.5,0.3
			c-0.2,0-0.3-0.1-0.3-0.2c-0.1-0.1,0-0.3,0.1-0.5c-0.1,0.1,0,0.3,0.1,0.4c0.1,0.1,0.3,0.1,0.4,0c-0.2,0-0.3,0-0.3-0.1
			c0-0.1,0-0.2,0.2-0.3c-0.1,0.2-0.1,0.3,0.1,0.2c0.1,0,0.3-0.1,0.6-0.2c0.2-0.1,0.5-0.2,0.8-0.2c0.3,0,0.6,0,0.8,0.2
			c0.2,0.1,0.2,0.3,0.2,0.4c0,0.2-0.1,0.3-0.2,0.4c-0.6,0.8-1.1,1.6-1.6,2.4c-0.4,0.9-0.8,1.7-0.9,2.4c-0.2,0.8-0.2,1.4-0.1,2
			c0.1,0.6,0.4,0.9,0.8,1.1c0.2,0.1,0.4,0,0.6-0.1c0.2-0.1,0.5-0.2,0.8-0.4c0.3-0.2,0.5-0.4,0.8-0.7c0.3-0.3,0.5-0.6,0.7-0.8
			c-0.4-0.2-0.7-0.5-0.9-0.9c0.1,0.3,0.2,0.6,0.4,0.7c-0.3-0.2-0.5-0.4-0.6-0.9c-0.2-0.4-0.2-0.9-0.2-1.4c0-0.5,0.1-1.1,0.3-1.7
			c0.2-0.6,0.6-1.2,1-1.7c0.5-0.6,1.1-0.9,1.6-1c0.6-0.1,1,0.1,1.3,0.5c-0.1-0.1-0.1-0.2-0.2-0.3c-0.1-0.1-0.1-0.1-0.2-0.2
			c0.2,0.1,0.3,0.2,0.4,0.4c0.1,0.2,0.2,0.3,0.2,0.5c0,0.2,0,0.4,0,0.6c0,0.2,0,0.4-0.1,0.6c0,0.1,0,0.2,0,0.2c0,0.1,0,0.1,0,0.2
			c-0.1,0.6-0.3,1.2-0.5,1.8c-0.2,0.6-0.5,1.2-0.7,1.7c0.2-0.1,0.5-0.3,0.7-0.5c0.2-0.2,0.5-0.5,0.7-0.7c0.2-0.3,0.4-0.5,0.6-0.8
			C21.7,13.7,21.9,13.5,22,13.3z M16.2,11.2c-0.7,1-1.3,2-1.6,2.9c-0.4,0.9-0.6,1.6-0.7,2.3c-0.1,0.7-0.1,1.2,0,1.6
			c0.1,0.4,0.3,0.7,0.6,0.8c-0.3-0.3-0.5-0.7-0.6-1.1c-0.1-0.4,0-0.9,0-1.4c0.1-0.5,0.2-1,0.4-1.5c0.2-0.5,0.4-1,0.6-1.5
			c0.2-0.5,0.4-0.9,0.7-1.2C15.9,11.7,16.1,11.4,16.2,11.2z M15.4,20.3c0.3,0,0.7-0.2,1-0.4c0.4-0.2,0.7-0.4,1-0.7
			c0.3-0.3,0.6-0.6,0.9-0.9c0.3-0.3,0.5-0.7,0.6-1c-0.1,0.3-0.2,0.6-0.5,1c-0.2,0.3-0.5,0.6-0.8,0.9c-0.3,0.3-0.7,0.5-1.1,0.7
			C16.2,20.1,15.8,20.2,15.4,20.3z M16.3,14.7c-0.1-0.4-0.1-0.9,0-1.4c0.1-0.5,0.2-1,0.5-1.5c0.2-0.5,0.5-0.9,0.8-1.2
			c0.3-0.3,0.6-0.6,1-0.7c-0.2,0.1-0.5,0.4-0.7,0.6c-0.3,0.3-0.5,0.7-0.8,1.1c-0.2,0.4-0.4,0.9-0.6,1.4
			C16.3,13.6,16.2,14.1,16.3,14.7z M18.9,11.8c-0.3,0.2-0.6,0.4-0.8,0.8c-0.2,0.4-0.3,0.9-0.4,1.3c-0.1,0.5-0.1,0.9,0,1.3
			c0.1,0.4,0.2,0.7,0.5,0.8c-0.3-0.2-0.4-0.5-0.5-0.9c0-0.4,0-0.9,0.1-1.3c0.1-0.5,0.3-0.9,0.5-1.3C18.5,12.1,18.7,11.9,18.9,11.8z
			 M18.3,15.9c0.2-0.5,0.4-1,0.5-1.4c0.1-0.5,0.3-0.9,0.4-1.2c0.1-0.4,0.1-0.7,0.1-0.9c0-0.2,0-0.4-0.1-0.4c-0.2-0.1-0.4,0-0.6,0.3
			c-0.2,0.3-0.4,0.7-0.5,1.2c-0.1,0.5-0.2,1-0.2,1.4C17.9,15.4,18.1,15.7,18.3,15.9z M20.8,10.8c0,0.4,0,0.8-0.2,1.4
			c-0.1,0.5-0.3,1.1-0.4,1.6c-0.2,0.5-0.3,1-0.5,1.4c-0.2,0.4-0.3,0.7-0.3,0.8c0.2-0.3,0.4-0.7,0.6-1.1c0.2-0.5,0.3-1,0.5-1.5
			c0.1-0.5,0.2-1,0.3-1.4C20.8,11.4,20.8,11.1,20.8,10.8z"/>
		<path class="st0" d="M29.2,13.5c0.1-0.1,0.2-0.2,0.3-0.2c0.1,0,0.2,0,0.3,0c0.1,0,0.1,0.1,0.2,0.2c0,0.1,0,0.2,0,0.3
			c-0.1,0.2-0.3,0.6-0.5,1c-0.2,0.4-0.5,0.8-0.8,1.3c-0.3,0.5-0.6,0.9-0.9,1.4c-0.3,0.5-0.6,0.9-1,1.3c-0.3,0.4-0.6,0.7-0.9,1
			c-0.3,0.3-0.5,0.4-0.7,0.5c0.1,0,0.2,0,0.4,0c-0.5,0.3-0.9,0.2-1.1-0.1c-0.2-0.3-0.2-0.9,0-1.8c-0.1,0.2-0.2,0.4-0.4,0.6
			c-0.2,0.2-0.3,0.4-0.5,0.6c-0.2,0.2-0.4,0.3-0.6,0.5c-0.2,0.1-0.4,0.2-0.6,0.2c-0.4,0.1-0.7,0-1-0.2c-0.3-0.2-0.5-0.6-0.6-1
			c-0.1-0.5-0.2-1-0.1-1.7c0.1-0.6,0.2-1.3,0.5-2.1c0.4-1,0.8-1.9,1.3-2.6c0.5-0.7,1-1.2,1.5-1.6c0.5-0.4,1-0.7,1.5-0.8
			c0.5-0.1,1-0.2,1.4-0.2c0.4,0,0.8,0,1.1,0.1c0.3,0.1,0.5,0.2,0.6,0.3c0.2,0.2,0.4,0.5,0.3,0.8c0,0.3-0.1,0.6-0.2,0.8
			c0-0.4-0.2-0.7-0.7-0.9c-0.4-0.2-0.9-0.2-1.6-0.1c0.4,0,0.7,0,1,0.1c0.3,0.1,0.5,0.2,0.7,0.3c0.2,0.1,0.3,0.3,0.3,0.4
			c0.1,0.2,0.1,0.3,0,0.5c-0.1-0.2-0.3-0.4-0.6-0.6c-0.3-0.1-0.6-0.2-0.9-0.2c-0.3,0-0.6,0-1,0.1c-0.3,0.1-0.6,0.2-0.9,0.4
			c0.4-0.2,0.7-0.4,1.1-0.4c0.3-0.1,0.7-0.1,1,0c0.3,0.1,0.5,0.2,0.7,0.3c0.2,0.2,0.3,0.3,0.3,0.6c-0.2-0.2-0.5-0.4-1-0.4
			c-0.5-0.1-0.9,0-1.5,0.3C25,12.6,24.5,13,24,13.7c-0.5,0.6-1,1.6-1.4,2.8c-0.3,0.9-0.5,1.6-0.5,2c0,0.4,0.1,0.6,0.3,0.6
			c0.3,0,0.6-0.3,0.9-0.7c0.3-0.4,0.6-1,0.8-1.8c0,0.1,0,0.2,0,0.2c0,0.1,0,0.2,0,0.2c0.3-0.7,0.7-1.4,1-2.1
			c0.3-0.7,0.6-1.2,0.8-1.6c0.1-0.2,0.2-0.4,0.4-0.4c0.2-0.1,0.3-0.1,0.5-0.2c-0.1,0.2-0.3,0.5-0.4,0.8c-0.1,0.4-0.3,0.8-0.5,1.4
			c0.2-0.5,0.4-0.9,0.6-1.3c0.2-0.4,0.3-0.7,0.5-0.9c0.1,0,0.2,0.1,0.3,0.1c0.1,0,0.2,0.1,0.3,0.2c0,0.2-0.1,0.5-0.3,0.9
			c-0.2,0.3-0.3,0.7-0.5,1c-0.2,0.4-0.4,0.8-0.7,1.3c-0.1,0.3-0.2,0.6-0.4,1c-0.1,0.3-0.2,0.6-0.3,0.8c-0.1,0.2-0.1,0.4-0.2,0.6
			c0,0.1,0,0.2,0,0.2c0.1,0,0.4-0.2,0.7-0.6c0.3-0.4,0.7-0.9,1.1-1.5c0.4-0.6,0.8-1.2,1.1-1.8C28.6,14.4,28.9,13.9,29.2,13.5z
			 M22.6,15.8c-0.3,0.7-0.5,1.3-0.7,1.8c-0.1,0.5-0.2,0.9-0.2,1.2c0,0.3,0.1,0.5,0.2,0.7c0.1,0.1,0.3,0.2,0.5,0.2
			c-0.3,0-0.5-0.2-0.5-0.6c0-0.4,0-0.8,0.1-1.2c0.1-0.4,0.2-0.9,0.3-1.3C22.5,16.2,22.6,15.9,22.6,15.8z M26.6,10.1
			c-0.5,0-1,0.1-1.4,0.3c-0.4,0.1-0.8,0.3-1.1,0.5c-0.3,0.2-0.6,0.4-0.8,0.7c-0.2,0.2-0.4,0.5-0.6,0.7c0.2-0.3,0.5-0.6,0.9-0.9
			c0.3-0.3,0.7-0.5,1-0.7c0.4-0.2,0.7-0.3,1.1-0.4C26.1,10.2,26.4,10.1,26.6,10.1z M22.6,19.7c0.3-0.1,0.6-0.3,0.8-0.5
			c0.2-0.3,0.4-0.5,0.6-0.8c0.2-0.3,0.3-0.6,0.4-0.8c0.1-0.2,0.1-0.4,0.2-0.5c-0.4,0.8-0.7,1.4-1,1.8C23.2,19.2,22.9,19.5,22.6,19.7
			z M23.7,14.2c0.3-0.5,0.6-0.8,0.9-1.1c0.3-0.3,0.6-0.5,0.9-0.6c0.3-0.1,0.6-0.2,0.9-0.2c0.3,0,0.5,0,0.7,0
			c-0.7,0.1-1.4,0.3-1.9,0.6C24.7,13.2,24.2,13.7,23.7,14.2z M26.6,14.2c-0.2,0.3-0.3,0.7-0.5,1.2c-0.2,0.5-0.4,1-0.5,1.4
			c-0.2,0.5-0.3,0.9-0.4,1.3c-0.1,0.4-0.1,0.7-0.1,0.8c0-0.2,0.1-0.6,0.2-1c0.1-0.4,0.3-0.9,0.4-1.4c0.2-0.5,0.3-0.9,0.5-1.4
			C26.4,14.8,26.5,14.5,26.6,14.2z"/>
		<path class="st0" d="M38.1,13.8c-0.2,0.4-0.4,0.9-0.8,1.5c-0.4,0.6-0.7,1.3-1.2,2c-0.4,0.7-0.9,1.4-1.3,2
			c-0.5,0.6-0.9,1.1-1.3,1.4c0.4-0.2,0.7-0.5,0.9-0.8c0.3-0.4,0.5-0.7,0.8-0.9c-0.4,0.7-0.7,1.1-1,1.4c-0.3,0.3-0.6,0.5-0.9,0.6
			c-0.6,0.2-1.1,0.1-1.4-0.3c-0.2-0.3-0.3-0.7-0.3-1.2c0-0.5,0.1-1.1,0.3-1.7c0.2-0.6,0.4-1.2,0.6-1.9c0.2-0.6,0.5-1.2,0.7-1.7
			c0.2-0.5,0.4-1,0.5-1.3c0.1-0.3,0.1-0.5,0-0.6c-0.2-0.1-0.5,0-1,0.3c-0.5,0.3-1.1,0.9-1.7,1.7c0.3-0.3,0.5-0.4,0.7-0.5
			c-0.9,0.8-1.6,1.7-2,2.7c-0.5,1-0.8,2.1-1.1,3.2c0,0.1-0.1,0.2-0.3,0.3c-0.1,0.1-0.3,0.1-0.4,0.2c-0.1,0-0.3,0-0.4-0.1
			c-0.1-0.1-0.2-0.2-0.2-0.5c0-0.5,0.2-1.2,0.3-2c0.2-0.8,0.4-1.7,0.6-2.6c0.2-0.9,0.5-1.7,0.8-2.4c0.3-0.7,0.6-1.3,0.8-1.6
			c0.1-0.1,0.2-0.2,0.3-0.3c-0.1,0.1-0.2,0.3-0.3,0.6c-0.1,0.3-0.3,0.6-0.4,0.9c-0.1,0.3-0.3,0.7-0.4,1.1c-0.1,0.4-0.2,0.7-0.3,1
			c0.1-0.3,0.3-0.7,0.4-1.1c0.2-0.4,0.3-0.8,0.5-1.2c0.2-0.4,0.3-0.7,0.5-1c0.2-0.3,0.3-0.5,0.4-0.6c0.2-0.1,0.4-0.1,0.6-0.1
			c0.2,0,0.3,0,0.5,0c0.1,0,0.2,0.1,0.3,0.2c0.1,0.1,0.1,0.1,0,0.2c-0.1,0.1-0.2,0.2-0.4,0.4c-0.1,0.2-0.3,0.4-0.4,0.6
			c-0.1,0.2-0.3,0.5-0.4,0.7c-0.1,0.3-0.3,0.5-0.4,0.7c0.4-0.8,0.9-1.4,1.3-1.9c0.5-0.5,0.9-0.9,1.3-1.2c0.4-0.3,0.8-0.5,1.2-0.6
			c0.4-0.1,0.7-0.1,1-0.1c0.6,0.1,0.9,0.6,0.9,1.3c0,0.7-0.3,1.6-0.8,2.7c-0.1,0.3-0.3,0.7-0.5,1.1c-0.2,0.4-0.4,0.9-0.6,1.3
			c-0.2,0.5-0.4,0.9-0.6,1.4c-0.2,0.4-0.3,0.9-0.5,1.2c-0.1,0.4-0.2,0.6-0.3,0.9c-0.1,0.2-0.1,0.3,0,0.3c0.1,0,0.3-0.1,0.5-0.3
			c0.2-0.2,0.4-0.5,0.7-0.9c0.3-0.4,0.5-0.8,0.8-1.3c0.3-0.5,0.6-0.9,0.9-1.4c0.3-0.5,0.5-0.9,0.8-1.3c0.2-0.4,0.5-0.8,0.6-1.1
			c0.1-0.1,0.2-0.2,0.3-0.2c0.1,0,0.2,0,0.3,0c0.1,0,0.1,0.1,0.2,0.2C38.2,13.6,38.2,13.7,38.1,13.8z M28.5,19.5
			c0.2-0.8,0.4-1.6,0.7-2.3c0.3-0.7,0.6-1.4,0.9-1.9c0.3-0.6,0.6-1,0.9-1.4c0.3-0.4,0.5-0.6,0.6-0.7c-0.1,0.1-0.3,0.3-0.7,0.8
			c-0.3,0.4-0.7,1-1,1.6c-0.4,0.6-0.7,1.3-1,2C28.6,18.2,28.5,18.9,28.5,19.5z M33.7,12.7c0,0.1-0.1,0.3-0.2,0.6
			c-0.1,0.3-0.3,0.7-0.5,1.2c-0.2,0.5-0.4,1-0.6,1.6c-0.2,0.6-0.4,1.1-0.5,1.6c-0.1,0.5-0.2,1-0.3,1.5c-0.1,0.5,0,0.8,0.1,1
			c-0.2-0.1-0.4-0.3-0.4-0.8c0-0.5,0.1-1.1,0.3-1.8c0.2-0.7,0.5-1.5,0.8-2.4C32.8,14.3,33.2,13.5,33.7,12.7z M34.8,14.8
			c-0.7,1.4-1.2,2.5-1.5,3.4c-0.3,0.9-0.4,1.5-0.3,1.7c0-0.2,0.1-0.6,0.2-1.1c0.2-0.5,0.3-1,0.6-1.5c0.2-0.5,0.4-1,0.6-1.5
			C34.6,15.3,34.7,14.9,34.8,14.8z M36.1,11.1c0.1-0.4,0-0.7-0.1-0.9C36,10,35.8,9.8,35.6,9.8c-0.2-0.1-0.4-0.1-0.7-0.1
			c-0.3,0-0.5,0.1-0.7,0.2c0.2-0.1,0.4-0.1,0.6-0.1c0.2,0,0.4,0,0.6,0c0.2,0.1,0.4,0.2,0.5,0.4C36,10.4,36.1,10.7,36.1,11.1z"/>
		<path class="st0" d="M61.5,2.2c0.3,0,0.6,0.1,0.8,0.3c0.2,0.2,0.4,0.4,0.4,0.6c0.1,0.2,0.1,0.4,0.1,0.5c0,0.2-0.1,0.2-0.2,0.2
			c-0.2,0-0.6,0-1-0.1c-0.4,0-0.8-0.1-1.3-0.1c-0.5,0-0.9-0.1-1.3-0.1c-0.4,0-0.8-0.1-1-0.1c-0.1,0.5-0.2,1-0.4,1.4
			c-0.2,0.5-0.5,1.1-0.8,1.7c-0.3,0.6-0.7,1.3-1.2,2.1c-0.5,0.8-1,1.7-1.5,2.8c-0.6,1.1-1.2,2.3-1.8,3.7c-0.6,1.4-1.3,3-2,4.9
			c0.6-0.1,1.3-0.2,2-0.3c0.7-0.1,1.3-0.1,1.9-0.1c0.6,0,1,0.2,1.3,0.4c0.3,0.3,0.4,0.7,0.2,1.3c0-0.1,0-0.2,0-0.3
			c0-0.1-0.1-0.2-0.1-0.4c0.1,0.4-0.1,0.8-0.4,1.5c-0.3-0.5-1.1-0.8-2.3-0.8c-1.2,0-2.9,0.1-5,0.4c-0.2,0.1-0.4,0.1-0.7,0.2
			c-0.3,0.1-0.5,0.1-0.8,0.1c-0.3,0-0.5,0-0.7-0.1c-0.2-0.1-0.3-0.2-0.4-0.4c-0.2,0-0.3-0.1-0.4-0.3c-0.1-0.1-0.2-0.3-0.2-0.5
			c0-0.2,0-0.4,0-0.5c0-0.2,0.1-0.3,0.2-0.4c0.1,0.3,0.5,0.5,1.3,0.5c0.8,0,1.7,0,2.9-0.2c0.4-1.1,0.7-2.3,1.1-3.4
			c0.4-1.2,0.8-2.3,1.3-3.6c-0.4,0.8-0.8,1.6-1.1,2.4c-0.3,0.8-0.7,1.7-1,2.6c0.3-1.3,0.7-2.6,1.2-4c0.5-1.4,1.1-2.7,1.6-3.9
			c0.6-1.2,1.2-2.4,1.7-3.4c0.6-1,1.1-1.9,1.5-2.5c0.1-0.2,0.3-0.4,0.5-0.6c0.2-0.2,0.3-0.3,0.3-0.3c-0.6,0-1.2,0-1.8,0
			c-0.6,0-1.1,0.1-1.6,0.2c-0.5,0.1-0.9,0.2-1.2,0.3c-0.3,0.1-0.5,0.2-0.5,0.4c0-0.1,0-0.2,0-0.3c0-0.1,0.1-0.2,0.2-0.3
			c0.1-0.1,0.3-0.2,0.5-0.3c0.2-0.1,0.5-0.2,0.9-0.2c-0.5,0-1,0.1-1.3,0.3c-0.4,0.2-0.6,0.4-0.7,0.8c-0.1-0.2-0.1-0.4-0.1-0.6
			c0-0.2,0.1-0.4,0.3-0.6c-0.3,0.1-0.4,0.2-0.5,0.2c-0.1,0.1-0.2,0.1-0.2,0.2c0.1-0.3,0.3-0.6,0.7-0.8c0.4-0.2,0.9-0.3,1.5-0.4
			c0.6-0.1,1.2-0.1,1.9-0.1c0.7,0,1.3,0,1.9,0c0.9,0,1.8,0,2.6,0C59.6,2,60.6,2.1,61.5,2.2z M48.7,20.2c-0.2,0.1-0.5,0.1-0.9,0.1
			c-0.4,0-0.9,0-1.3,0c-0.4,0-0.8-0.1-1.1-0.1c-0.3-0.1-0.4-0.2-0.4-0.4c0.1,0.1,0.2,0.2,0.3,0.2c0.1,0.1,0.4,0.1,0.7,0.2
			c0.3,0,0.7,0.1,1.1,0.1C47.5,20.2,48,20.2,48.7,20.2z M45.7,21.5c0.3,0.1,0.7,0.1,1.2,0c0.5-0.1,1-0.2,1.4-0.2c-0.1,0-0.2,0-0.4,0
			c-0.2,0-0.5,0-0.8,0.1c-0.3,0-0.5,0.1-0.8,0.1C46.1,21.5,45.9,21.5,45.7,21.5z M54.7,20.7c0.1-0.1,0-0.2-0.1-0.2
			c-0.1-0.1-0.3-0.1-0.7-0.2c-0.3,0-0.8,0-1.4,0c-0.6,0-1.3,0.1-2.2,0.2c0.2,0,0.5,0,0.9-0.1c0.5,0,0.9,0,1.4,0c0.5,0,0.9,0,1.3,0.1
			C54.4,20.5,54.7,20.6,54.7,20.7z M58.3,3.5c0.1,0.2,0.1,0.6-0.2,1.2c-0.2,0.6-0.5,1.2-0.9,2c-0.4,0.8-0.8,1.6-1.3,2.4
			c-0.5,0.9-1,1.7-1.4,2.5c-0.5,0.8-0.9,1.5-1.2,2.2c-0.4,0.7-0.6,1.2-0.8,1.5c0.1-0.4,0.3-1,0.7-1.7c0.3-0.7,0.7-1.4,1.2-2.2
			c0.4-0.8,0.9-1.6,1.4-2.5c0.5-0.9,0.9-1.6,1.3-2.4c0.4-0.7,0.7-1.4,0.9-1.9C58.2,4.1,58.3,3.7,58.3,3.5z M53.3,11.1
			c0.2-0.5,0.5-1,0.9-1.7C54.6,8.7,55,8,55.4,7.2c0.4-0.7,0.8-1.4,1.1-2c0.3-0.6,0.5-1.1,0.6-1.5c-0.1,0.2-0.3,0.6-0.6,1.1
			c-0.3,0.6-0.7,1.2-1.1,2c-0.4,0.7-0.8,1.5-1.2,2.3C53.8,9.8,53.5,10.5,53.3,11.1z M53.4,3c0.1,0,0.4,0,0.8-0.1c0.5,0,1,0,1.5,0
			c0.6,0,1.1,0,1.6,0c0.5,0,0.9,0,1.1,0c-0.1-0.1-0.4-0.1-0.7-0.1c-0.4,0-0.8,0-1.3,0c-0.5,0-1,0-1.5,0.1C54.5,2.9,53.9,2.9,53.4,3z
			 M61,2c0.8-0.1,1.4,0,1.7,0.3C63,2.7,63.1,3,63,3.5c0-0.1,0-0.2-0.1-0.4c0-0.2-0.1-0.3-0.2-0.5c-0.1-0.2-0.3-0.3-0.6-0.4
			C61.8,2.1,61.4,2.1,61,2z"/>
		<path class="st0" d="M66.1,13.5c0.1-0.1,0.2-0.2,0.3-0.2c0.1,0,0.2,0,0.3,0c0.1,0,0.1,0.1,0.2,0.2c0,0.1,0,0.2,0,0.4
			c-0.2,0.4-0.4,0.8-0.7,1.2c-0.3,0.4-0.6,0.7-0.9,1c-0.3,0.3-0.6,0.6-0.9,0.8c-0.3,0.2-0.6,0.3-1,0.4c-0.1,0.1-0.2,0.4-0.5,0.7
			c-0.3,0.4-0.6,0.8-1,1.1c-0.4,0.4-0.8,0.7-1.3,1c-0.5,0.3-1,0.3-1.5,0.2c-0.4-0.1-0.8-0.3-1.1-0.5c-0.3-0.3-0.5-0.6-0.6-1
			c0.1,0.4,0.2,0.8,0.4,1c-0.2-0.2-0.5-0.6-0.6-1.1c-0.2-0.5-0.3-1.2-0.2-1.9c0-0.8,0.1-1.6,0.4-2.5c0.2-0.9,0.7-1.8,1.3-2.7
			c-0.1,0-0.2,0-0.3-0.1c-0.1,0-0.2-0.1-0.2-0.1c-0.1-0.1-0.1-0.1-0.1-0.2c0-0.1,0-0.2,0.1-0.3c0,0.2,0.2,0.3,0.5,0.3
			c-0.2,0-0.3-0.1-0.3-0.2c-0.1-0.1,0-0.3,0.1-0.5c-0.1,0.1,0,0.3,0.1,0.4c0.1,0.1,0.3,0.1,0.4,0c-0.2,0-0.3,0-0.3-0.1
			c0-0.1,0-0.2,0.2-0.3c-0.1,0.2-0.1,0.3,0.1,0.2c0.1,0,0.3-0.1,0.6-0.2c0.2-0.1,0.5-0.2,0.8-0.2c0.3-0.1,0.6,0,0.8,0.2
			c0.2,0.1,0.3,0.3,0.2,0.4c0,0.2-0.1,0.3-0.2,0.4c-0.6,0.8-1.1,1.6-1.5,2.5c-0.4,0.9-0.7,1.7-0.9,2.5c-0.2,0.8-0.2,1.4-0.1,2
			c0.1,0.6,0.4,0.9,0.8,1.1c0.2,0.1,0.4,0,0.6-0.1c0.2-0.1,0.5-0.2,0.7-0.5c0.3-0.2,0.5-0.5,0.8-0.7c0.3-0.3,0.5-0.6,0.7-0.9
			c-0.4-0.2-0.7-0.5-0.9-0.9c0.1,0.3,0.2,0.6,0.4,0.7c-0.3-0.2-0.5-0.4-0.7-0.8c-0.2-0.4-0.3-0.9-0.3-1.4c0-0.5,0.1-1.1,0.3-1.7
			c0.2-0.6,0.5-1.2,1-1.8c0.5-0.6,1.1-1,1.6-1c0.6-0.1,1,0.1,1.3,0.5c-0.1-0.1-0.1-0.2-0.2-0.3c-0.1-0.1-0.1-0.1-0.2-0.2
			c0.2,0.1,0.3,0.2,0.4,0.4c0.1,0.2,0.2,0.3,0.2,0.5c0,0.2,0,0.4,0,0.6c0,0.2,0,0.4,0,0.6c0,0.1,0,0.2,0,0.2c0,0.1,0,0.1,0,0.2
			c-0.1,0.6-0.3,1.2-0.5,1.9c-0.2,0.7-0.4,1.2-0.7,1.7c0.2-0.1,0.5-0.3,0.7-0.5c0.2-0.2,0.4-0.5,0.6-0.7c0.2-0.3,0.4-0.5,0.5-0.8
			C65.9,13.9,66,13.7,66.1,13.5z M60.3,11.5c-0.7,1.1-1.2,2-1.6,2.9c-0.4,0.9-0.6,1.7-0.7,2.3C58,17.5,58,18,58.1,18.4
			c0.1,0.4,0.3,0.7,0.6,0.8c-0.3-0.3-0.5-0.7-0.6-1.1c-0.1-0.4-0.1-0.9,0-1.4c0.1-0.5,0.2-1,0.4-1.5c0.2-0.5,0.4-1,0.6-1.5
			c0.2-0.5,0.4-0.9,0.6-1.3C60,12,60.1,11.8,60.3,11.5z M59.8,20.6c0.3-0.1,0.7-0.2,1-0.4c0.3-0.2,0.7-0.5,1-0.7
			c0.3-0.3,0.6-0.6,0.9-0.9c0.3-0.3,0.5-0.7,0.6-1c-0.1,0.3-0.2,0.6-0.4,1c-0.2,0.3-0.5,0.7-0.8,1c-0.3,0.3-0.7,0.6-1.1,0.8
			C60.6,20.4,60.2,20.6,59.8,20.6z M60.5,15c-0.1-0.4-0.1-0.9,0-1.4c0.1-0.5,0.2-1,0.4-1.5c0.2-0.5,0.5-0.9,0.8-1.2
			c0.3-0.3,0.6-0.6,1-0.7c-0.2,0.1-0.5,0.4-0.7,0.7c-0.3,0.3-0.5,0.7-0.8,1.1c-0.2,0.4-0.4,0.9-0.6,1.4C60.4,13.9,60.4,14.4,60.5,15
			z M63,12c-0.3,0.2-0.6,0.4-0.8,0.9c-0.2,0.4-0.3,0.9-0.4,1.3c-0.1,0.5,0,0.9,0,1.3c0.1,0.4,0.3,0.7,0.5,0.8
			c-0.3-0.2-0.4-0.5-0.5-0.9c-0.1-0.4,0-0.9,0.1-1.3c0.1-0.5,0.2-0.9,0.4-1.3C62.6,12.4,62.8,12.1,63,12z M62.5,16.2
			c0.2-0.5,0.3-1,0.5-1.4c0.1-0.5,0.2-0.9,0.3-1.2c0.1-0.4,0.1-0.7,0.1-0.9c0-0.2,0-0.4-0.1-0.4c-0.2-0.1-0.4,0-0.6,0.3
			c-0.2,0.3-0.4,0.7-0.5,1.2c-0.1,0.5-0.2,1-0.1,1.4C62.1,15.7,62.3,16,62.5,16.2z M64.9,11c0,0.4,0,0.8-0.1,1.4
			c-0.1,0.5-0.2,1.1-0.4,1.6c-0.2,0.5-0.3,1-0.5,1.4c-0.2,0.4-0.3,0.7-0.3,0.8c0.2-0.3,0.4-0.7,0.5-1.2c0.2-0.5,0.3-1,0.4-1.5
			c0.1-0.5,0.2-1,0.3-1.4C64.9,11.6,64.9,11.3,64.9,11z"/>
		<path class="st0" d="M73.3,13.4c0.1-0.1,0.1-0.2,0.2-0.3c0.1,0,0.2-0.1,0.3,0c0.1,0,0.1,0.1,0.2,0.2c0,0.1,0,0.2,0,0.3
			c-0.1,0.2-0.3,0.6-0.5,1c-0.2,0.4-0.5,0.9-0.7,1.3c-0.3,0.5-0.6,1-0.9,1.4c-0.3,0.5-0.6,0.9-0.9,1.3c-0.3,0.4-0.6,0.7-0.9,1
			c-0.3,0.3-0.5,0.4-0.7,0.5c0.1,0,0.2,0,0.4-0.1c-0.5,0.3-0.9,0.2-1.1-0.1c-0.2-0.3-0.2-0.9,0-1.8c-0.1,0.2-0.2,0.4-0.4,0.6
			c-0.1,0.2-0.3,0.4-0.5,0.6c-0.2,0.2-0.4,0.3-0.6,0.5c-0.2,0.1-0.4,0.2-0.6,0.3c-0.4,0.1-0.7,0-1-0.2c-0.3-0.2-0.5-0.6-0.6-1
			c-0.1-0.4-0.2-1-0.1-1.7c0-0.6,0.2-1.3,0.4-2.1c0.3-1,0.7-1.9,1.2-2.6c0.5-0.7,0.9-1.2,1.4-1.6c0.5-0.4,1-0.7,1.5-0.8
			c0.5-0.2,1-0.3,1.4-0.3c0.4,0,0.8,0,1.1,0.1c0.3,0.1,0.5,0.2,0.6,0.3c0.2,0.2,0.4,0.5,0.4,0.8c0,0.3-0.1,0.6-0.2,0.8
			c0-0.4-0.3-0.7-0.7-0.9C71.5,11,71,11,70.4,11.1c0.4,0,0.7,0,1,0.1s0.5,0.2,0.7,0.3c0.2,0.1,0.3,0.3,0.3,0.4
			c0.1,0.2,0.1,0.3,0,0.5c-0.1-0.2-0.4-0.4-0.6-0.5c-0.3-0.1-0.6-0.2-0.9-0.2c-0.3,0-0.6,0-1,0.1c-0.3,0.1-0.6,0.2-0.8,0.4
			c0.3-0.2,0.7-0.4,1-0.5c0.3-0.1,0.7-0.1,1,0c0.3,0.1,0.5,0.2,0.7,0.3c0.2,0.2,0.3,0.3,0.3,0.5c-0.2-0.2-0.5-0.3-1-0.4
			c-0.5-0.1-0.9,0-1.5,0.3c-0.5,0.3-1,0.7-1.6,1.4c-0.5,0.7-1,1.6-1.3,2.8c-0.3,0.9-0.4,1.6-0.5,2c0,0.4,0.1,0.6,0.3,0.6
			c0.3,0,0.6-0.3,0.9-0.7c0.3-0.5,0.6-1,0.8-1.8c0,0.1,0,0.2,0,0.2c0,0.1,0,0.2,0,0.2c0.3-0.7,0.6-1.4,0.9-2.1
			c0.3-0.7,0.5-1.2,0.7-1.6c0.1-0.2,0.2-0.4,0.4-0.5c0.2-0.1,0.3-0.2,0.5-0.2c-0.1,0.2-0.2,0.5-0.4,0.8c-0.1,0.4-0.3,0.8-0.5,1.4
			c0.2-0.5,0.4-0.9,0.6-1.3c0.2-0.4,0.3-0.7,0.5-0.9c0.1,0,0.2,0.1,0.3,0.1c0.1,0,0.2,0.1,0.3,0.2c0,0.2-0.1,0.5-0.3,0.9
			c-0.2,0.3-0.3,0.7-0.5,1c-0.2,0.4-0.4,0.8-0.7,1.3c-0.1,0.3-0.2,0.7-0.3,1c-0.1,0.3-0.2,0.6-0.3,0.8c-0.1,0.2-0.1,0.4-0.1,0.6
			c0,0.1,0,0.2,0,0.2c0.1,0,0.4-0.2,0.7-0.6c0.3-0.4,0.6-0.9,1-1.5c0.4-0.6,0.7-1.2,1.1-1.8C72.7,14.4,73,13.9,73.3,13.4z
			 M66.8,15.9c-0.3,0.7-0.5,1.3-0.6,1.9C66.1,18.3,66,18.7,66,19c0,0.3,0.1,0.5,0.2,0.7c0.1,0.1,0.3,0.2,0.5,0.2
			c-0.3,0-0.5-0.2-0.5-0.6c0-0.4,0-0.8,0.1-1.2c0.1-0.5,0.2-0.9,0.3-1.3C66.7,16.3,66.8,16,66.8,15.9z M70.7,10.1
			c-0.5,0.1-1,0.2-1.4,0.3c-0.4,0.2-0.8,0.3-1.1,0.6c-0.3,0.2-0.6,0.4-0.8,0.7c-0.2,0.2-0.4,0.5-0.5,0.7c0.2-0.3,0.5-0.6,0.9-0.9
			c0.3-0.3,0.7-0.5,1-0.7c0.3-0.2,0.7-0.3,1-0.5C70.1,10.2,70.4,10.2,70.7,10.1z M67,19.8c0.3-0.1,0.6-0.3,0.8-0.6
			c0.2-0.3,0.4-0.6,0.6-0.9c0.2-0.3,0.3-0.6,0.4-0.8c0.1-0.3,0.1-0.4,0.2-0.5c-0.3,0.8-0.7,1.4-1,1.8C67.5,19.3,67.2,19.6,67,19.8z
			 M67.9,14.3c0.3-0.5,0.6-0.8,0.9-1.1c0.3-0.3,0.6-0.5,0.9-0.6c0.3-0.1,0.6-0.2,0.8-0.3c0.3,0,0.5,0,0.7,0
			c-0.7,0.1-1.4,0.3-1.9,0.7C68.8,13.3,68.4,13.8,67.9,14.3z M70.8,14.3c-0.2,0.3-0.3,0.7-0.5,1.2c-0.2,0.5-0.4,1-0.5,1.4
			c-0.1,0.5-0.3,0.9-0.3,1.3c-0.1,0.4-0.1,0.7,0,0.8c0-0.2,0-0.6,0.2-1c0.1-0.4,0.2-0.9,0.4-1.4c0.2-0.5,0.3-0.9,0.5-1.4
			C70.6,14.8,70.7,14.5,70.8,14.3z"/>
		<path class="st0" d="M82.3,13.5c-0.1,0.4-0.4,0.9-0.7,1.5c-0.3,0.6-0.7,1.3-1.1,2c-0.4,0.7-0.8,1.4-1.3,2
			c-0.4,0.6-0.8,1.1-1.2,1.5c0.3-0.2,0.6-0.5,0.9-0.8c0.2-0.4,0.5-0.7,0.7-1c-0.3,0.7-0.7,1.2-1,1.5c-0.3,0.3-0.6,0.5-0.9,0.6
			c-0.6,0.2-1.1,0.1-1.4-0.3c-0.2-0.3-0.3-0.7-0.3-1.2c0-0.5,0.1-1.1,0.2-1.7c0.1-0.6,0.3-1.2,0.5-1.9c0.2-0.6,0.4-1.2,0.6-1.8
			c0.2-0.5,0.3-1,0.4-1.3c0.1-0.3,0.1-0.5,0-0.6c-0.2-0.1-0.5,0-1,0.4c-0.5,0.3-1,0.9-1.6,1.8c0.3-0.3,0.5-0.4,0.7-0.5
			c-0.9,0.8-1.5,1.8-1.9,2.8c-0.4,1-0.8,2.1-1,3.3c0,0.1-0.1,0.2-0.2,0.3c-0.1,0.1-0.3,0.1-0.4,0.2c-0.1,0-0.3,0-0.4-0.1
			c-0.1-0.1-0.2-0.2-0.2-0.5c0-0.5,0.1-1.2,0.3-2c0.2-0.8,0.3-1.7,0.6-2.6c0.2-0.9,0.5-1.7,0.7-2.4c0.3-0.7,0.5-1.3,0.8-1.7
			c0.1-0.1,0.1-0.2,0.3-0.3c-0.1,0.1-0.2,0.4-0.3,0.6c-0.1,0.3-0.3,0.6-0.4,1c-0.1,0.3-0.3,0.7-0.4,1.1c-0.1,0.4-0.2,0.7-0.3,1
			c0.1-0.3,0.2-0.7,0.4-1.1c0.1-0.4,0.3-0.8,0.4-1.2c0.2-0.4,0.3-0.7,0.5-1c0.2-0.3,0.3-0.5,0.4-0.6c0.2-0.1,0.4-0.1,0.6-0.1
			c0.2,0,0.3,0,0.5,0c0.1,0,0.2,0.1,0.3,0.2c0.1,0.1,0.1,0.1,0,0.2c-0.1,0.1-0.2,0.3-0.3,0.4c-0.1,0.2-0.3,0.4-0.4,0.6
			c-0.1,0.2-0.3,0.5-0.4,0.7c-0.1,0.3-0.2,0.5-0.3,0.7c0.4-0.8,0.8-1.4,1.3-1.9c0.4-0.5,0.9-1,1.3-1.3c0.4-0.3,0.8-0.5,1.2-0.7
			c0.4-0.1,0.7-0.2,1-0.1c0.6,0.1,1,0.5,1,1.3c0,0.7-0.2,1.7-0.7,2.8c-0.1,0.3-0.3,0.7-0.5,1.1c-0.2,0.4-0.4,0.9-0.5,1.3
			c-0.2,0.5-0.4,0.9-0.5,1.4c-0.2,0.5-0.3,0.9-0.4,1.2c-0.1,0.4-0.2,0.7-0.3,0.9c-0.1,0.2-0.1,0.3,0,0.3c0.1,0,0.3-0.1,0.4-0.3
			c0.2-0.2,0.4-0.5,0.7-0.9c0.2-0.4,0.5-0.8,0.8-1.3c0.3-0.5,0.6-1,0.8-1.4c0.3-0.5,0.5-0.9,0.8-1.4c0.2-0.4,0.4-0.8,0.6-1.1
			c0.1-0.1,0.2-0.2,0.3-0.2c0.1,0,0.2,0,0.3,0c0.1,0,0.1,0.1,0.2,0.2C82.4,13.3,82.3,13.4,82.3,13.5z M72.8,19.5
			c0.1-0.8,0.4-1.6,0.6-2.3c0.3-0.7,0.6-1.4,0.9-2c0.3-0.6,0.6-1.1,0.9-1.4c0.3-0.4,0.4-0.6,0.6-0.7c-0.1,0.1-0.3,0.4-0.6,0.8
			c-0.3,0.4-0.7,1-1,1.6c-0.3,0.6-0.6,1.3-0.9,2C72.9,18.2,72.8,18.9,72.8,19.5z M77.8,12.5c0,0.1-0.1,0.3-0.2,0.6
			c-0.1,0.3-0.3,0.7-0.5,1.2c-0.2,0.5-0.3,1-0.5,1.6c-0.2,0.6-0.3,1.1-0.5,1.7c-0.1,0.5-0.2,1-0.3,1.5c0,0.5,0,0.8,0.1,1
			c-0.2-0.1-0.4-0.3-0.4-0.8c0-0.5,0.1-1.1,0.2-1.8c0.2-0.7,0.4-1.5,0.8-2.4C77,14.2,77.4,13.3,77.8,12.5z M79,14.6
			c-0.7,1.4-1.2,2.6-1.4,3.5c-0.3,0.9-0.4,1.5-0.2,1.7c0-0.2,0.1-0.6,0.2-1.1c0.1-0.5,0.3-1,0.5-1.6c0.2-0.5,0.4-1.1,0.6-1.5
			C78.8,15.1,78.9,14.7,79,14.6z M80.2,10.8c0-0.4,0-0.7-0.1-0.9c-0.1-0.2-0.3-0.3-0.5-0.4c-0.2-0.1-0.4-0.1-0.7,0
			c-0.3,0-0.5,0.1-0.7,0.3c0.2-0.1,0.4-0.1,0.6-0.1c0.2,0,0.4,0,0.6,0c0.2,0,0.4,0.2,0.5,0.3C80.1,10.2,80.2,10.4,80.2,10.8z"/>
		<path class="st0" d="M90,13.1c0.1-0.1,0.2-0.2,0.3-0.3c0.1,0,0.2-0.1,0.3,0c0.1,0,0.1,0.1,0.2,0.2c0,0.1,0,0.2,0,0.4
			c-0.2,0.5-0.4,0.9-0.6,1.3c-0.3,0.4-0.5,0.8-0.8,1.1c-0.3,0.3-0.6,0.6-1,0.8c-0.3,0.2-0.7,0.3-1,0.3c-0.3,0.5-0.6,1-0.9,1.4
			c-0.3,0.4-0.7,0.8-1,1.1c-0.4,0.3-0.7,0.5-1.1,0.7c-0.4,0.1-0.8,0.2-1.1,0.1c-0.6-0.1-1.1-0.4-1.5-0.9c-0.4-0.5-0.6-1-0.7-1.7
			c-0.1-0.7-0.1-1.4,0-2.2c0.1-0.8,0.3-1.5,0.7-2.2c0.3-0.7,0.7-1.4,1.2-1.9c0.5-0.6,1.1-1,1.7-1.2c-0.4,0.1-0.8,0.2-1.2,0.4
			c-0.4,0.2-0.7,0.5-1,0.9c0.3-0.6,0.8-1.1,1.4-1.4c0.6-0.3,1.3-0.4,2-0.4c0.7,0,1.3,0.2,1.8,0.6c0.5,0.3,0.8,0.8,0.9,1.5
			c0.1,0.5,0.1,1,0,1.7c-0.1,0.7-0.4,1.5-0.8,2.5c0.3-0.1,0.5-0.2,0.8-0.5c0.3-0.3,0.5-0.5,0.7-0.8c0.2-0.3,0.4-0.6,0.5-0.8
			C89.8,13.4,89.9,13.2,90,13.1z M81,18.3c0.1,0.4,0.3,0.7,0.5,1.1c0.3,0.3,0.6,0.6,1.1,0.7c0.4,0.1,1,0.1,1.6,0
			c0.6-0.2,1.2-0.6,1.9-1.3c-0.4,0.6-0.8,1-1.4,1.3c-0.5,0.3-1.1,0.4-1.6,0.4c-0.5,0-1-0.2-1.4-0.6C81.3,19.5,81.1,19,81,18.3z
			 M81.1,15.7c-0.1,1.1,0,1.9,0.2,2.5c0.3,0.6,0.6,1,1,1.3c-0.3-0.3-0.6-0.6-0.8-0.9c-0.2-0.4-0.3-0.8-0.3-1.1
			c-0.1-0.4-0.1-0.7-0.1-1C81.1,16,81.1,15.8,81.1,15.7z M83.1,18.7c0.2,0.1,0.5,0.1,0.8,0c0.3-0.1,0.5-0.3,0.8-0.5
			c0.3-0.2,0.5-0.5,0.7-0.8c0.2-0.3,0.4-0.7,0.6-1.1c-0.3-0.1-0.5-0.3-0.7-0.6c-0.2-0.3-0.3-0.6-0.3-1c0,0.3,0,0.5,0,0.8
			c-0.2-0.5-0.3-0.9-0.2-1.3c0.1-0.4,0.2-0.8,0.4-1.1c0.2-0.3,0.4-0.6,0.6-0.8c0.2-0.2,0.4-0.3,0.6-0.4c-0.1-0.1-0.1-0.1-0.2-0.1
			c-0.5-0.1-0.9,0-1.3,0.3c-0.4,0.3-0.8,0.7-1.1,1.3c-0.1,0.1-0.2,0.4-0.3,0.7c-0.1,0.3-0.3,0.6-0.4,1c-0.1,0.4-0.2,0.8-0.2,1.2
			c0,0.4,0,0.8,0.1,1.2c-0.1-0.1-0.2-0.3-0.3-0.5c0,0.5,0,0.9,0.1,1.2C82.7,18.4,82.8,18.6,83.1,18.7z M85.7,11.5
			c-0.2-0.1-0.5-0.1-0.8,0c-0.3,0.1-0.5,0.3-0.8,0.6c-0.2,0.2-0.5,0.5-0.6,0.8c-0.2,0.3-0.3,0.6-0.3,0.9c0.4-0.9,0.8-1.5,1.3-1.8
			C85,11.6,85.4,11.5,85.7,11.5z M83.9,18.9c0.3-0.1,0.6-0.2,0.9-0.4c0.3-0.2,0.5-0.4,0.7-0.6c0.2-0.2,0.3-0.4,0.4-0.7
			c0.1-0.2,0.2-0.4,0.2-0.6c-0.2,0.5-0.4,0.9-0.8,1.3C84.9,18.3,84.4,18.7,83.9,18.9z M86.2,15.4c-0.1-0.2-0.2-0.4-0.3-0.6
			c0-0.3,0-0.5,0.1-0.8c0.1-0.3,0.2-0.5,0.3-0.7c0.2-0.2,0.3-0.4,0.6-0.5c-0.2,0-0.5,0.1-0.6,0.3c-0.2,0.2-0.3,0.4-0.4,0.7
			c-0.1,0.3-0.1,0.5-0.1,0.8C85.8,15,86,15.2,86.2,15.4z M86.4,15.4c0.2-0.4,0.3-0.8,0.3-1.2c0.1-0.4,0.1-0.8,0.1-1.1
			c-0.2,0.1-0.3,0.3-0.4,0.5c-0.1,0.2-0.2,0.4-0.3,0.6c-0.1,0.2-0.1,0.4,0,0.7C86.2,15,86.3,15.2,86.4,15.4z M88.6,12.8
			c0.1-0.4,0.1-0.8,0-1.1c-0.1-0.3-0.2-0.6-0.3-0.8c-0.1-0.2-0.2-0.4-0.4-0.6c-0.1-0.1-0.2-0.2-0.3-0.3c0.2,0,0.4,0.1,0.5,0.3
			c0.2,0.2,0.3,0.4,0.4,0.7c0.1,0.3,0.1,0.6,0.1,0.9C88.7,12.2,88.7,12.5,88.6,12.8z"/>
		<path class="st0" d="M98.4,12.8c0.1-0.1,0.2-0.2,0.3-0.2c0.1,0,0.2,0,0.3,0c0.1,0,0.1,0.1,0.2,0.2c0,0.1,0,0.2,0,0.4
			c-0.2,0.4-0.4,0.9-0.7,1.3c-0.3,0.4-0.5,0.8-0.8,1.1c-0.3,0.3-0.6,0.6-0.9,0.8c-0.3,0.2-0.6,0.4-0.9,0.4c-0.1,0.1-0.2,0.4-0.5,0.8
			c-0.3,0.4-0.6,0.8-1,1.2c-0.4,0.4-0.8,0.7-1.3,1c-0.5,0.3-1,0.4-1.5,0.3c-0.4-0.1-0.8-0.2-1.1-0.5c-0.3-0.3-0.5-0.6-0.6-0.9
			c0.1,0.4,0.2,0.7,0.4,1c-0.2-0.2-0.5-0.5-0.6-1.1c-0.2-0.5-0.3-1.2-0.3-1.9c0-0.8,0.1-1.6,0.3-2.5c0.2-0.9,0.6-1.8,1.2-2.7
			c-0.1,0-0.2,0-0.3-0.1c-0.1,0-0.2-0.1-0.3-0.1c-0.1-0.1-0.1-0.1-0.1-0.2c0-0.1,0-0.2,0.1-0.3c0,0.2,0.2,0.3,0.5,0.2
			c-0.2,0-0.3-0.1-0.3-0.2c-0.1-0.1,0-0.3,0.1-0.5c-0.1,0.1,0,0.3,0.1,0.3c0.1,0.1,0.3,0.1,0.4,0c-0.2,0-0.3,0-0.3-0.1
			c0-0.1,0-0.2,0.1-0.3c-0.1,0.2-0.1,0.3,0.1,0.2c0.1,0,0.3-0.1,0.6-0.2c0.2-0.1,0.5-0.2,0.8-0.2c0.3-0.1,0.6,0,0.8,0.1
			c0.2,0.1,0.3,0.3,0.2,0.4c0,0.2-0.1,0.3-0.1,0.4c-0.6,0.8-1.1,1.6-1.5,2.5c-0.4,0.9-0.7,1.7-0.8,2.5c-0.2,0.8-0.2,1.4-0.1,2
			c0.1,0.6,0.4,0.9,0.9,1.1c0.2,0,0.4,0,0.6-0.1c0.2-0.1,0.5-0.3,0.7-0.5c0.3-0.2,0.5-0.5,0.8-0.7c0.2-0.3,0.5-0.6,0.6-0.9
			c-0.4-0.2-0.7-0.5-0.9-0.9c0.1,0.3,0.3,0.6,0.4,0.7c-0.3-0.1-0.5-0.4-0.7-0.8c-0.2-0.4-0.3-0.9-0.3-1.4c0-0.5,0.1-1.1,0.3-1.7
			c0.2-0.6,0.5-1.2,0.9-1.8c0.5-0.6,1-1,1.6-1.1c0.6-0.1,1,0.1,1.3,0.4c-0.1-0.1-0.1-0.2-0.2-0.3c-0.1-0.1-0.1-0.1-0.2-0.2
			c0.2,0.1,0.3,0.2,0.4,0.4c0.1,0.2,0.2,0.3,0.2,0.5c0,0.2,0.1,0.4,0,0.6c0,0.2,0,0.4,0,0.6c0,0.1,0,0.2,0,0.2c0,0.1,0,0.1,0,0.2
			c-0.1,0.6-0.2,1.2-0.4,1.9c-0.2,0.7-0.4,1.2-0.6,1.7c0.2-0.1,0.4-0.3,0.7-0.5c0.2-0.2,0.4-0.5,0.6-0.7c0.2-0.3,0.4-0.5,0.5-0.8
			C98.2,13.3,98.3,13,98.4,12.8z M92.5,11c-0.7,1.1-1.2,2.1-1.5,3c-0.3,0.9-0.5,1.7-0.6,2.3c-0.1,0.7,0,1.2,0.1,1.6
			c0.1,0.4,0.4,0.7,0.6,0.8c-0.3-0.3-0.5-0.7-0.6-1.1c-0.1-0.4-0.1-0.9,0-1.4c0.1-0.5,0.2-1,0.4-1.5c0.2-0.5,0.4-1,0.6-1.5
			c0.2-0.5,0.4-0.9,0.6-1.3C92.3,11.5,92.4,11.2,92.5,11z M92.2,20.1c0.3-0.1,0.7-0.2,1-0.4c0.3-0.2,0.7-0.5,1-0.8
			c0.3-0.3,0.6-0.6,0.8-1c0.3-0.3,0.5-0.7,0.6-1c-0.1,0.3-0.2,0.6-0.4,1c-0.2,0.3-0.5,0.7-0.8,1c-0.3,0.3-0.7,0.6-1.1,0.8
			C93,19.9,92.6,20,92.2,20.1z M92.8,14.4c-0.1-0.4-0.1-0.9-0.1-1.4c0.1-0.5,0.2-1,0.4-1.5c0.2-0.5,0.4-0.9,0.7-1.2
			c0.3-0.4,0.6-0.6,1-0.7c-0.2,0.1-0.4,0.4-0.7,0.7c-0.3,0.3-0.5,0.7-0.7,1.1c-0.2,0.4-0.4,0.9-0.5,1.4
			C92.7,13.3,92.7,13.9,92.8,14.4z M95.3,11.4c-0.3,0.2-0.6,0.5-0.7,0.9c-0.2,0.4-0.3,0.9-0.4,1.3c0,0.5,0,0.9,0.1,1.3
			c0.1,0.4,0.3,0.7,0.5,0.8c-0.3-0.2-0.5-0.5-0.5-0.9c-0.1-0.4-0.1-0.9,0-1.3c0.1-0.5,0.2-0.9,0.4-1.3
			C94.9,11.8,95.1,11.5,95.3,11.4z M94.9,15.6c0.2-0.5,0.3-1,0.5-1.5c0.1-0.5,0.2-0.9,0.3-1.2c0.1-0.4,0.1-0.7,0.1-0.9
			c0-0.2,0-0.4-0.1-0.4c-0.2-0.1-0.4,0-0.6,0.3c-0.2,0.3-0.4,0.7-0.5,1.2c-0.1,0.5-0.1,1-0.1,1.4C94.5,15.1,94.6,15.4,94.9,15.6z
			 M97.1,10.3c0,0.4,0,0.8-0.1,1.4c-0.1,0.5-0.2,1.1-0.3,1.6c-0.1,0.5-0.3,1-0.4,1.4c-0.1,0.4-0.2,0.7-0.3,0.8
			c0.2-0.3,0.4-0.7,0.5-1.2c0.2-0.5,0.3-1,0.4-1.5c0.1-0.5,0.2-1,0.2-1.5C97.2,11,97.2,10.6,97.1,10.3z"/>
	</g>
</g>
<g>
</g>
</svg>
