<?xml version="1.0" encoding="UTF-8" standalone="no"?>

<svg
   xmlns:dc="http://purl.org/dc/elements/1.1/"
   xmlns:cc="http://creativecommons.org/ns#"
   xmlns:rdf="http://www.w3.org/1999/02/22-rdf-syntax-ns#"
   xmlns:svg="http://www.w3.org/2000/svg"
   xmlns="http://www.w3.org/2000/svg"
   xmlns:sodipodi="http://sodipodi.sourceforge.net/DTD/sodipodi-0.dtd"
   xmlns:inkscape="http://www.inkscape.org/namespaces/inkscape"
   version="1.1"
   id="Layer_1"
   x="0px"
   y="0px"
   width="200"
   height="200"
   viewBox="0 0 200 200"
   enable-background="new 0 0 324 528"
   xml:space="preserve"
   sodipodi:docname="logo.svg"
   inkscape:version="0.92.1 r15371"
   inkscape:export-filename="C:\Users\Ivan Ivanov\Desktop\lab-logo\logo.png"
   inkscape:export-xdpi="218.18182"
   inkscape:export-ydpi="218.18182"><metadata
     id="metadata184"><rdf:RDF><cc:Work
         rdf:about=""><dc:format>image/svg+xml</dc:format><dc:type
           rdf:resource="http://purl.org/dc/dcmitype/StillImage" /><dc:title /></cc:Work></rdf:RDF></metadata><defs
     id="defs182" /><sodipodi:namedview
     pagecolor="#ffffff"
     bordercolor="#666666"
     borderopacity="1"
     objecttolerance="10"
     gridtolerance="10"
     guidetolerance="10"
     inkscape:pageopacity="0"
     inkscape:pageshadow="2"
     inkscape:window-width="1366"
     inkscape:window-height="705"
     id="namedview180"
     showgrid="false"
     inkscape:zoom="1.1644231"
     inkscape:cx="35.403387"
     inkscape:cy="54.358515"
     inkscape:window-x="-8"
     inkscape:window-y="-8"
     inkscape:window-maximized="1"
     inkscape:current-layer="text36"
     borderlayer="true"
     inkscape:pagecheckerboard="false"
     viewbox-x="1" /><g
     id="gc5rIu_1_"
     transform="translate(0,-328)"><g
       id="g52"
       transform="translate(1.5819968,1.582002)"><flowRoot
         xml:space="preserve"
         id="flowRoot30"
         style="font-style:normal;font-weight:normal;font-size:40px;line-height:1.25;font-family:sans-serif;letter-spacing:0px;word-spacing:0px;fill:#000000;fill-opacity:1;stroke:none"><flowRegion
           id="flowRegion32"><rect
             id="rect34"
             width="541.83557"
             height="60.907063"
             x="14.238014"
             y="143.57361" /></flowRegion><flowPara
           id="flowPara36"
           style="font-style:normal;font-variant:normal;font-weight:normal;font-stretch:normal;font-family:Slenderman;-inkscape-font-specification:Slenderman" /></flowRoot><ellipse
         cx="101.60073"
         cy="407.01636"
         id="circle2"
         style="clip-rule:evenodd;fill:#ff008c;fill-rule:evenodd;stroke-width:1.9297235"
         rx="5.5392218"
         ry="4.5270596"
         inkscape:export-xdpi="349"
         inkscape:export-ydpi="349" /><ellipse
         cx="127.38428"
         cy="346.27661"
         rx="5.0632105"
         ry="5.3923492"
         id="ellipse4"
         style="clip-rule:evenodd;fill:#ff008c;fill-rule:evenodd;stroke-width:1.9297235"
         inkscape:export-xdpi="349"
         inkscape:export-ydpi="349" /><ellipse
         cx="150.25838"
         cy="336.67325"
         rx="6.0344429"
         ry="4.0508027"
         id="ellipse6"
         style="clip-rule:evenodd;fill:#ff008c;fill-rule:evenodd;stroke-width:1.9297235"
         inkscape:export-xdpi="349"
         inkscape:export-ydpi="349" /><ellipse
         cx="120.8333"
         cy="366.89212"
         id="circle8"
         style="clip-rule:evenodd;fill:#ff008c;fill-rule:evenodd;stroke-width:1.9297235"
         rx="10.20967"
         ry="8.3440933"
         inkscape:export-xdpi="349"
         inkscape:export-ydpi="349" /><path
         d="m 74.626111,438.21894 c 0,-0.92637 -0.01706,-1.85269 0.0015,-2.77904 0.172955,-8.89885 2.249861,-17.72971 0.755651,-26.70531 -0.619026,-3.73509 0.841018,-7.69863 0.224136,-11.43537 -0.730015,-4.4311 0.561376,-8.42089 1.985145,-12.49266 0.587008,-1.67994 0.860237,-3.21333 4.211518,-3.11393 2.484641,0.075 4.960747,-2.03065 7.603359,-2.40574 3.889185,-0.55124 7.981165,-0.83557 11.88103,-0.47454 3.8892,0.35966 7.6247,1.74107 11.48189,2.49474 1.72045,0.33506 3.569,0.23939 5.35991,0.32459 1.58385,0.075 1.99157,0.53208 1.98302,2.00276 -0.0365,6.74948 0.25185,13.50091 0.43119,20.2522 0.0981,3.63038 0.12381,7.26427 0.35432,10.88944 0.12802,1.99048 0.76633,3.95824 0.91361,5.94534 0.23475,3.20295 -0.0576,6.45128 0.46747,9.61406 0.39917,2.38831 1.35546,4.83412 2.71517,6.97285 3.00549,4.71897 8.51483,7.63243 13.06361,11.22784 3.84222,3.03557 7.9769,5.83203 11.68465,8.97046 1.27009,1.07459 1.89979,2.80864 2.35658,4.33513 0.93922,3.12447 3.58609,5.60342 3.71203,9.17619 0.17929,5.0732 -1.23379,9.58453 -4.97998,13.29169 -2.39712,2.37257 -5.81031,4.34905 -10.01115,4.73986 -7.3835,0.68552 -14.74564,1.53871 -22.14193,2.11086 -4.9629,0.3856 -9.96633,0.48495 -14.95484,0.56869 -6.324739,0.10682 -12.655892,0.0771 -18.982773,0.0823 -5.697182,0.0103 -11.396477,0.0373 -17.091517,-0.0683 -1.498461,-0.0295 -3.086592,-0.31578 -4.45698,-0.81116 -3.936165,-1.41997 -8.006793,-0.16531 -11.981377,-0.56872 -0.424786,-0.0443 -0.896525,0.65948 -1.430162,0.79381 -1.075832,0.27276 -2.454766,0.80771 -3.274435,0.48843 -2.002228,-0.77804 -3.9575,-1.81608 -5.554169,-3.07214 -1.141996,-0.89841 -2.322411,-2.29755 -2.362972,-3.50122 -0.130295,-3.82926 -0.277487,-7.7615 0.636103,-11.4808 0.691611,-2.8157 2.981998,-5.37315 4.585072,-8.03539 3.020417,-5.02238 8.2544,-8.52196 12.867212,-12.45067 0.41411,-0.35423 0.988307,-0.65416 1.216712,-1.07638 1.889096,-3.49431 5.966133,-4.83235 9.473246,-6.85597 3.011883,-1.73932 5.28093,-4.34224 7.874437,-6.56471 -0.202758,-0.12897 -0.411969,-0.25985 -0.616883,-0.38897 z m 26.445259,-34.50687 c -2.044935,2.51742 -3.379043,4.95274 -2.128178,7.97949 0.941344,-0.21799 1.720468,-0.34878 2.450478,-0.57563 3.06099,-0.95427 5.51575,-5.32088 4.2713,-7.53116 -2.61273,-4.64051 -3.648,-9.47462 -2.60418,-14.85643 -1.75036,0.32077 -3.353422,0.70122 -4.992774,0.88271 -1.216713,0.13248 -2.649006,0.31584 -3.690693,-0.0634 -3.598876,-1.30825 -7.067565,-2.85217 -11.080555,-4.51296 1.28714,1.62246 2.258363,2.84532 3.229598,4.06999 -0.132399,0.0872 -0.262544,0.17469 -0.394915,0.25982 -0.990431,-0.57393 -1.978749,-1.14614 -2.979868,-1.72705 -0.576336,1.47578 -1.355444,2.79651 -1.579582,4.17809 -0.665995,4.05433 -1.368267,8.12436 -1.547561,12.20471 -0.115334,2.55579 1.191077,5.16564 0.990449,7.70392 -0.772734,9.83387 -1.857102,19.65217 -2.911568,29.46864 -0.254056,2.36383 -1.016062,2.63426 -3.564738,1.62413 -1.150534,1.31539 -2.008638,3.45071 -3.51138,3.81531 -6.721768,1.63642 -9.242699,6.86299 -14.805397,10.4341 20.449214,-4.77486 40.59532,-5.88784 60.878064,-6.66586 -1.67138,-1.01016 -3.20401,-1.93644 -4.76437,-2.88199 0.24974,-0.49022 0.61047,-0.84086 0.51655,-1.06246 -0.96695,-2.25917 2.62553,-3.07214 2.43343,-5.09924 -0.009,-0.0848 1.25513,-0.47623 1.73327,-0.3246 1.41522,0.45361 2.89234,0.94903 4.05142,1.7219 1.85922,1.24033 3.86785,2.53653 5.02266,4.17988 0.48882,0.69429 -1.03101,2.33245 -1.41524,3.09653 5.51789,1.36076 11.28123,2.78251 17.04246,4.20432 -2.61273,-2.3289 -5.56911,-4.30024 -8.45079,-6.34478 -2.58497,-1.83703 -5.13579,-3.70544 -7.60122,-5.64883 -1.31063,-1.03455 -2.60845,-2.15274 -3.54553,-3.41579 -1.35118,-1.81604 -3.09299,-3.72987 -3.37903,-5.72211 -0.56353,-3.93911 -0.0315,-7.97075 -0.34156,-11.94484 -0.31805,-4.09787 -1.29142,-8.16086 -1.63723,-12.2553 -0.41197,-4.9056 -0.39702,-9.83566 -0.698,-14.7482 -0.15369,-2.5174 -0.59983,-5.0261 -0.95417,-7.86615 -0.79619,0.5094 -1.16119,0.76414 -1.5561,0.98736 -0.45466,0.2549 -0.93493,0.48149 -1.3768,0.70658 2.04707,3.86245 -1.60093,12.43673 -5.22757,13.5811 0.42691,1.77079 0.75992,3.47166 1.2658,5.14119 0.75992,2.52437 -2.17941,3.69837 -3.18478,5.5599 -0.65958,1.21765 -3.35554,2.03934 -5.287344,2.28872 -0.751374,0.0978 -1.968073,-1.82994 -2.83685,-2.90808 -0.354321,-0.44312 -0.358623,-1.07635 -0.514426,-1.62598 -0.932814,-3.26396 1.210302,-7.79617 4.66618,-9.25465 0.73003,1.39559 1.4451,2.76854 2.16233,4.1415 -0.21986,0.0965 -0.4376,0.19183 -0.65746,0.28786 -0.41197,-0.40649 -0.82181,-0.81646 -1.4942,-1.48286 z m -54.621635,82.8496 c 1.306345,0.10682 2.567886,0.17469 3.818748,0.31583 7.415517,0.83207 14.801145,2.03067 22.248677,2.41788 6.557408,0.33837 13.185256,-0.23353 19.785367,-0.38559 7.592672,-0.17654 15.187493,-0.25479 22.773773,-0.52156 5.62887,-0.19896 11.23853,-0.7554 16.86315,-0.92293 4.67898,-0.13907 8.88836,-1.37634 12.85226,-3.20118 1.48566,-0.68383 2.99054,-1.73576 3.79955,-2.93077 3.69281,-5.44469 5.5627,-11.08479 1.60946,-16.8574 -5.48584,1.68864 -10.79668,3.6094 -16.32096,4.93702 -4.74728,1.1391 -9.75073,1.55254 -14.61969,2.37428 -4.04716,0.68379 -8.01747,1.77939 -12.09877,2.18935 -7.955555,0.80085 -15.915379,-0.0683 -23.781281,-0.93153 -6.719655,-0.73799 -13.338967,-2.12312 -19.964684,-3.36348 -2.627656,-0.49201 -5.330042,-1.09208 -7.665257,-2.14403 -1.90832,-0.85833 -3.317121,-2.45976 -4.873233,-3.67227 -1.720475,1.53868 -4.015143,2.78607 -4.860428,4.50792 -2.187947,4.45555 -4.871106,8.86574 -4.294771,13.96315 0.236938,2.10921 2.467574,5.49012 4.380154,5.69766 0.113117,-0.46398 0.221982,-0.93152 0.347935,-1.47231 z m 6.060058,-25.36206 c 2.529465,3.22214 5.793231,4.22006 9.372913,4.85158 6.694036,1.18102 13.31974,2.66387 20.062869,3.59025 5.20622,0.71526 10.542671,0.95602 15.834266,1.0641 4.800669,0.0996 9.658969,0.001 14.412649,-0.50058 4.66192,-0.49554 9.17867,-2.02015 13.83631,-2.36216 7.30665,-0.5338 14.12449,-2.15449 20.66268,-4.71192 0.81115,-0.3179 1.91259,-1.39911 1.75037,-1.85276 -0.34791,-0.96298 -0.12592,-2.45279 -2.50601,-2.48767 -1.67137,-0.0251 -3.40036,-0.82168 -4.97782,-1.47411 -7.95129,-3.29723 -16.43195,-4.54106 -25.23494,-4.17118 -8.47426,0.35385 -16.931443,0.97344 -25.390768,1.54216 -9.667479,0.65071 -19.302956,1.55263 -28.677995,3.68273 -3.10368,0.70649 -6.057932,1.85961 -9.144524,2.82956 z m 33.318572,-77.52694 c 1.639352,0.49024 3.293647,0.73615 4.591461,1.42699 2.473983,1.31892 5.067484,1.67998 7.919283,1.43752 1.267927,-0.10822 2.659671,0.20583 3.818751,-0.10822 2.54441,-0.69091 6.09208,0.89141 7.51584,-2.37086 0.18782,0.27027 0.37568,0.54247 0.56352,0.81297 0.58914,-0.39605 1.17829,-0.79036 1.94887,-1.30667 -6.55956,-2.85411 -19.706391,-2.75648 -26.357725,0.10781 z m 19.768295,14.60866 c 2.07907,-0.73265 5.40048,-5.36617 5.0077,-6.68852 -0.12377,-0.40974 -0.56778,-0.89489 -1.02458,-1.07808 -1.93393,-0.77284 -5.11445,0.72572 -5.02906,2.49639 0.0811,1.7376 0.66599,3.4559 1.04594,5.27021 z m 11.68466,45.20615 c -2.44622,3.52045 -1.13771,5.5929 3.50925,5.68535 0.95415,0.0212 2.08121,-0.64026 2.8219,-1.24031 0.27754,-0.22223 -0.0725,-1.4602 -0.55926,-1.72885 -1.82933,-1.01887 -3.83371,-1.82825 -5.77189,-2.71619 z"
         id="path12"
         inkscape:connector-curvature="0"
         style="clip-rule:evenodd;fill:#e5e5e5;fill-rule:evenodd;stroke-width:1.9297235"
         inkscape:export-xdpi="349"
         inkscape:export-ydpi="349" /><path
         d="m 121.24522,355.0327 c 3.90628,1.37641 6.86693,3.50304 8.08577,7.02526 0.3479,0.99948 0.78338,1.9782 1.13133,2.97795 1.6671,4.78866 -0.25615,7.98293 -5.94906,9.90886 -6.4635,2.18765 -11.26416,0.84265 -13.18742,-3.79263 -2.21781,-5.34697 0.99473,-10.13396 6.99288,-11.87856 2.19435,-0.63848 3.25096,0.44323 4.17522,1.7987 0.89012,1.30835 1.44512,2.53822 -0.82393,3.52219 -0.0982,-0.73793 -0.17929,-1.36075 -0.27536,-2.08306 -0.48027,-0.0475 -0.96483,-0.14901 -1.4451,-0.13248 -4.40576,0.1431 -8.05375,5.01729 -6.2052,8.26908 1.20816,2.12482 4.22004,2.89409 7.96836,1.88235 1.6543,-0.44658 3.36408,-0.98046 4.75369,-1.80917 1.86776,-1.11295 2.90943,-2.43528 1.91259,-4.71187 -1.2893,-2.93783 -2.27759,-5.67159 -6.28632,-7.0584 -1.02033,-0.35214 -1.20177,-2.32019 -1.76957,-3.54489 0.30734,-0.12435 0.61475,-0.2498 0.92214,-0.37302 z"
         id="path24"
         inkscape:connector-curvature="0"
         style="clip-rule:evenodd;fill:#e5e5e5;fill-rule:evenodd;stroke-width:1.9297235"
         inkscape:export-xdpi="349"
         inkscape:export-ydpi="349" /><path
         d="m 144.22392,339.39993 c 1.0993,-3.30412 0.77912,-7.10721 5.06962,-9.14834 0.70653,-0.33498 2.50812,-0.21595 2.84966,0.20731 1.40241,1.74097 2.60417,3.62518 3.569,5.55979 1.22098,2.44578 0.5379,4.12577 -2.30961,5.44462 -1.86135,0.86186 -3.98953,1.76725 -6.03444,1.82654 -2.94357,0.0829 -2.42701,-2.33765 -3.14423,-3.89025 z m 1.99797,-0.15146 c 0.33297,0.22894 0.66811,0.45886 1.00325,0.68909 2.24555,-0.63155 4.49113,-1.26479 6.51043,-1.83174 -1.23591,-2.19987 -2.16871,-3.85719 -3.40677,-6.0588 -1.43657,2.51913 -2.7728,4.86029 -4.10691,7.20145 z"
         id="path26"
         inkscape:connector-curvature="0"
         style="clip-rule:evenodd;fill:#e5e5e5;fill-rule:evenodd;stroke-width:1.9297235"
         inkscape:export-xdpi="349"
         inkscape:export-ydpi="349" /><path
         d="m 129.05777,339.05105 c 0.42478,0.49539 1.25726,1.05543 1.13986,1.39556 -0.7535,2.16503 1.58813,3.34084 2.24983,5.03476 0.71723,1.83873 -1.50273,5.66616 -3.79953,5.98725 -0.65104,0.0907 -1.59239,-0.19181 -2.0876,-0.57398 -2.28187,-1.76372 -3.3641,-6.83331 -1.70127,-8.90062 0.84529,-1.04839 2.40139,-1.71661 4.19871,-2.94297 z m -1.91686,9.57746 c 0.31375,0.0522 0.63184,0.10626 0.94775,0.15838 0.81115,-0.82511 1.62016,-1.65028 2.43129,-2.47544 -1.24445,-0.59309 -2.49105,-1.18632 -3.7355,-1.77942 -0.21128,0.13066 -0.42265,0.26195 -0.63397,0.39265 0.32877,1.23517 0.65958,2.4685 0.99043,3.70363 z"
         id="path28"
         inkscape:connector-curvature="0"
         style="clip-rule:evenodd;fill:#e5e5e5;fill-rule:evenodd;stroke-width:1.9297235"
         inkscape:export-xdpi="349"
         inkscape:export-ydpi="349" /><path
         d="m 46.449735,486.56167 c -0.128019,0.54251 -0.234796,1.00833 -0.343667,1.47231 -1.912582,-0.20584 -4.141077,-3.58843 -4.380139,-5.69762 -0.578477,-5.09741 2.10468,-9.50766 4.294752,-13.96315 0.845285,-1.72196 3.142096,-2.96927 4.860432,-4.50799 1.556108,1.21257 2.967056,2.81399 4.873233,3.67229 2.335228,1.05196 5.035458,1.65033 7.665257,2.14408 6.625719,1.24033 13.242902,2.62546 19.964682,3.36343 7.865905,0.86349 15.82573,1.73238 23.781285,0.93158 4.08131,-0.40982 8.0516,-1.50561 12.09876,-2.18939 4.86684,-0.82346 9.87242,-1.23514 14.61972,-2.37428 5.52428,-1.3276 10.83295,-3.24834 16.32095,-4.93707 3.95537,5.7727 2.08547,11.4128 -1.60948,16.85749 -0.80899,1.19497 -2.31388,2.24688 -3.79954,2.93077 -3.9639,1.82484 -8.17329,3.06168 -12.85226,3.20117 -5.62674,0.16918 -11.2364,0.72406 -16.86315,0.92291 -7.58628,0.26656 -15.18109,0.34512 -22.773773,0.52159 -6.6001,0.15165 -13.225833,0.72391 -19.785373,0.38557 -7.447522,-0.38725 -14.833156,-1.58579 -22.248673,-2.41794 -1.25513,-0.14309 -2.514525,-0.21133 -3.823016,-0.31584 z"
         id="path30"
         inkscape:connector-curvature="0"
         style="clip-rule:evenodd;fill:#ff008c;fill-rule:evenodd;stroke-width:1.9297235"
         inkscape:export-xdpi="349"
         inkscape:export-ydpi="349" /><path
         d="m 52.509793,461.19961 c 3.086592,-0.96995 6.040844,-2.12307 9.146648,-2.82785 9.375054,-2.13181 19.008392,-3.03199 28.678011,-3.6827 8.459313,-0.56871 16.916508,-1.18803 25.390758,-1.54217 8.80299,-0.3697 17.28579,0.87406 25.23494,4.17114 1.57745,0.65251 3.30646,1.44974 4.97783,1.47416 2.38006,0.0376 2.15806,1.52475 2.50599,2.48768 0.16216,0.45541 -0.93921,1.53692 -1.75034,1.85269 -6.53606,2.55747 -13.35604,4.1799 -20.66269,4.71202 -4.65978,0.34 -9.17653,1.86484 -13.8363,2.36212 -4.75371,0.50247 -9.61201,0.60009 -14.41266,0.50067 -5.291607,-0.1078 -10.628043,-0.34882 -15.834279,-1.06418 -6.743111,-0.92461 -13.370959,-2.40921 -20.062854,-3.5903 -3.581823,-0.63494 -6.845589,-1.63283 -9.375054,-4.85328 z"
         id="path32"
         inkscape:connector-curvature="0"
         style="clip-rule:evenodd;fill:#ffa1d5;fill-rule:evenodd;stroke-width:1.9297235"
         inkscape:export-xdpi="349"
         inkscape:export-ydpi="349" /><path
         d="m 105.59666,398.28133 c -0.38208,-1.81431 -0.96484,-3.53261 -1.04808,-5.27021 -0.0854,-1.77067 3.09514,-3.26923 5.02906,-2.49639 0.45894,0.18325 0.90292,0.66813 1.0246,1.07808 0.39701,1.32235 -2.92651,5.95587 -5.00558,6.68852 z"
         id="path34"
         inkscape:connector-curvature="0"
         style="clip-rule:evenodd;fill:#ff008c;fill-rule:evenodd;stroke-width:1.9297235"
         inkscape:export-xdpi="349"
         inkscape:export-ydpi="349" /><path
         d="m 117.28132,443.48748 c 1.93818,0.88794 3.94256,1.69732 5.77189,2.71619 0.48668,0.26861 0.83676,1.50726 0.55926,1.72885 -0.74283,0.60005 -1.86775,1.25951 -2.8219,1.24031 -4.64696,-0.0923 -5.95762,-2.1649 -3.50925,-5.68535 z"
         id="path36"
         inkscape:connector-curvature="0"
         style="clip-rule:evenodd;fill:#ff008c;fill-rule:evenodd;stroke-width:1.9297235"
         inkscape:export-xdpi="349"
         inkscape:export-ydpi="349" /><path
         d="M 81.687574,367.73823"
         id="path38"
         inkscape:connector-curvature="0"
         style="clip-rule:evenodd;fill:#e5e5e5;fill-rule:evenodd;stroke-width:1.9297235"
         inkscape:export-xdpi="349"
         inkscape:export-ydpi="349" /><path
         d="M 98.268933,337.96428"
         id="path40"
         inkscape:connector-curvature="0"
         style="clip-rule:evenodd;fill:#e5e5e5;fill-rule:evenodd;stroke-width:1.9297235"
         inkscape:export-xdpi="349"
         inkscape:export-ydpi="349" /><path
         d="m 92.385778,438.06714 c 0.224153,-0.31044 0.362886,-0.80076 0.683058,-0.90197 5.846608,-1.83167 14.474554,-0.0373 16.965594,4.86903 1.85282,3.64786 -1.19321,6.47749 -5.24678,7.38113 -4.36307,0.97523 -9.804101,-1.01528 -11.631282,-4.40493 -0.804743,-1.49334 -0.465348,-3.41057 -0.572068,-5.13938 -0.03155,-0.52858 0.187858,-1.06593 0.292467,-1.60146 -0.162185,-0.0683 -0.326622,-0.13429 -0.49095,-0.20281 z m 9.934312,10.57711 c 2.42701,-0.39772 3.66933,-0.98041 4.50182,-2.62902 1.46645,-2.88543 -2.42489,-7.95331 -6.24364,-7.83474 -0.27753,0.0103 -0.661718,0.0831 -0.804737,0.24443 -1.428033,1.58056 -2.90516,3.14203 -4.151738,4.81664 -0.311638,0.41696 -0.117477,1.51782 0.326627,1.80216 2.032113,1.298 4.232858,2.4179 6.371688,3.60069 z"
         id="path42"
         inkscape:connector-curvature="0"
         style="clip-rule:evenodd;fill:#e5e5e5;fill-rule:evenodd;stroke-width:1.9297235"
         inkscape:export-xdpi="349"
         inkscape:export-ydpi="349" /><path
         d="m 93.258821,413.42741 c 2.098278,3.37394 4.821995,6.39368 4.198708,10.23339 -0.228455,1.41311 -1.272212,2.74941 -2.049194,4.08052 -0.264747,0.45533 -0.949887,0.73791 -1.265806,1.1845 -1.603062,2.25915 -3.48362,2.53828 -5.274523,0.40477 -2.085492,-2.48077 -4.14322,-5.1952 -2.802703,-8.4174 0.870907,-2.08817 2.047054,-4.14497 3.51138,-5.99249 0.614756,-0.77796 2.326679,-0.97688 3.682138,-1.49323 z m -6.450686,10.07469 c 0.905054,1.45318 1.460042,2.74061 2.446219,3.749 0.431193,0.44307 1.965946,0.66636 2.610591,0.38765 3.705616,-1.60671 5.003428,-6.08665 2.971317,-9.14654 -0.580605,-0.87585 -0.941349,-2.03238 -2.333087,-1.35908 -0.621162,0.30001 -0.580605,1.57187 -0.755649,2.4162 -0.247554,1.21247 1.57746,2.73197 -1.176149,3.90957 0,-1.1776 0,-2.07259 0,-3.1629 -2.100415,0.6996 0.471755,3.75951 -3.763242,3.20647 z"
         id="path44"
         inkscape:connector-curvature="0"
         style="clip-rule:evenodd;fill:#e5e5e5;fill-rule:evenodd;stroke-width:1.9297235"
         inkscape:export-xdpi="349"
         inkscape:export-ydpi="349" /><path
         d="m 86.344934,432.14619 c 3.709882,0.55482 7.424045,1.11132 11.486145,1.71661 -0.676653,-0.77454 -1.182561,-1.35022 -1.684181,-1.92597 0.113078,-0.22889 0.228404,-0.45704 0.343708,-0.68555 6.717514,3.06861 13.765884,0.35594 20.852664,1.30487 -0.28608,0.4414 -0.43758,1.07114 -0.78338,1.15138 -3.05245,0.71012 -6.11983,1.77423 -9.22137,1.8632 -4.9949,0.14309 -10.038908,-0.22179 -15.016739,-0.68384 -2.207138,-0.2039 -4.309692,-1.16887 -6.457077,-1.78638 0.157996,-0.31708 0.320183,-0.63504 0.480285,-0.95432 z"
         id="path46"
         inkscape:connector-curvature="0"
         style="clip-rule:evenodd;fill:#e5e5e5;fill-rule:evenodd;stroke-width:1.9297235"
         inkscape:export-xdpi="349"
         inkscape:export-ydpi="349" /><path
         d="m 102.32009,448.64425 c -2.13884,-1.18452 -4.339589,-2.30278 -6.369574,-3.60069 -0.443993,-0.28453 -0.638252,-1.38517 -0.326622,-1.8021 1.246593,-1.67478 2.723718,-3.23432 4.151748,-4.8167 0.143073,-0.16063 0.527248,-0.23562 0.804728,-0.24441 3.81877,-0.11664 7.70796,4.94924 6.24364,7.83473 -0.83462,1.64854 -2.07694,2.23302 -4.50395,2.62894 z"
         id="path48"
         inkscape:connector-curvature="0"
         style="clip-rule:evenodd;fill:#ff008c;fill-rule:evenodd;stroke-width:1.9297235"
         inkscape:export-xdpi="349"
         inkscape:export-ydpi="349" /><path
         d="m 86.808135,423.5021 c 4.234997,0.553 1.662827,-2.50869 3.763242,-3.20822 0,1.09034 0,1.98709 0,3.16282 2.753609,-1.1776 0.92855,-2.69702 1.176149,-3.90952 0.172955,-0.84257 0.132361,-2.11605 0.755649,-2.41617 1.389613,-0.67331 1.750361,0.48333 2.333087,1.35895 2.032111,3.05999 0.736437,7.53993 -2.971317,9.14661 -0.644645,0.27946 -2.179398,0.0557 -2.610591,-0.38769 -0.988304,-1.00662 -1.543305,-2.2941 -2.446219,-3.74723 z"
         id="path50"
         inkscape:connector-curvature="0"
         style="clip-rule:evenodd;fill:#ff008c;fill-rule:evenodd;stroke-width:1.9297235"
         inkscape:export-xdpi="349"
         inkscape:export-ydpi="349" />
         
         <g
         aria-label="csyntax´s LAB"
         transform="scale(1.0310701,0.96986616)"
         style="font-style:normal;font-weight:normal;font-size:27.39421272px;line-height:1.25;font-family:sans-serif;letter-spacing:0px;word-spacing:0px;fill:#000000;fill-opacity:1;stroke:none;stroke-width:0.68485546"
         id="text36"><path
           d="m 15.686079,527.31556 q -1.270727,1.69876 -2.808977,2.54145 -1.524873,0.8427 -3.3306437,0.8427 -2.7956008,0 -4.5612434,-1.71214 -1.7522665,-1.72552 -1.7522665,-4.50774 0,-2.7421 2.006412,-4.74851 2.0064121,-2.01979 4.7351325,-2.01979 0.8159411,0 1.4981211,0.13376 0.695556,0.13376 1.243975,0.40129 0.735685,0.34777 1.096839,0.88282 0.361154,0.53504 0.361154,1.24397 0,0.65543 -0.548419,1.29748 -0.535043,0.64205 -1.631882,1.27073 l -0.575171,-0.54842 q 0.280897,-0.2809 0.454786,-0.57517 0.187265,-0.30765 0.254146,-0.62868 l -1.591754,-0.40128 0.187265,-0.57517 1.444617,0.20064 q -0.04013,-0.3344 -0.240769,-0.60192 -0.187265,-0.26752 -0.535044,-0.46817 -0.294273,-0.17388 -0.628675,-0.25414 -0.321026,-0.0803 -0.68218,-0.0803 -0.1872656,0 -0.4012829,0.0267 -0.2006412,0.0134 -0.4146585,0.0401 l 0.3076499,2.08667 -0.6152997,0.14714 -0.5484193,-1.81915 q -0.6152997,0.2809 -1.0700864,0.80257 -0.4414107,0.52166 -0.7089323,1.25735 l 1.8458991,0.54842 -0.2675216,0.68218 -1.8191469,-0.45479 q -0.1070087,0.30765 -0.1738891,0.73568 -0.053504,0.41466 -0.053504,0.96308 0,0.25415 0.026752,0.49492 0.026752,0.22739 0.080256,0.44141 l 1.5248732,-0.52167 0.4146585,0.78919 -1.7522665,0.6153 q 0.1203847,0.40128 0.3745302,0.82932 0.2541455,0.41465 0.6286758,0.86944 l 1.2172233,-0.9497 0.5885475,0.48154 -1.0567103,1.01658 q 0.4414106,0.34778 0.9898299,0.52167 0.5617954,0.16051 1.2707278,0.16051 l 0.120385,-1.565 h 0.695556 l 0.133761,1.53825 q 0.481538,-0.0401 0.936325,-0.18727 0.468163,-0.16051 0.936326,-0.42803 l -0.481539,-1.33761 0.6153,-0.22739 0.521667,1.08346 q 0.227393,-0.17389 0.468163,-0.41466 0.254145,-0.25414 0.508291,-0.57517 z"
           style="font-style:normal;font-variant:normal;font-weight:normal;font-stretch:normal;font-family:Jokerman;-inkscape-font-specification:Jokerman;text-align:start;text-anchor:start;stroke-width:0.68485546"
           id="path41" 
           fill="rgb(255, 0, 140)"
           /><path
           d="m 27.21626,519.90521 q 0,1.11021 -0.481538,1.65863 -0.481539,0.53505 -1.444617,0.53505 -0.869445,0 -1.310856,-0.32103 -0.428035,-0.3344 -0.428035,-0.98983 0,-0.32102 0.173889,-0.57517 0.173889,-0.26752 0.521668,-0.45479 l 0.387906,0.2809 q -0.09363,0.10701 -0.147137,0.21402 -0.0535,0.0936 -0.0535,0.18726 0,0.26752 0.160513,0.40129 0.160513,0.12038 0.468162,0.12038 0.428035,0 0.628676,-0.20064 0.200641,-0.21402 0.200641,-0.65543 0,-0.34778 -0.187265,-0.62867 -0.173889,-0.2809 -0.535043,-0.48154 -0.280898,-0.16052 -0.628676,-0.24077 -0.334402,-0.0803 -0.735684,-0.0803 -0.508291,0 -0.92295,0.13376 -0.401282,0.12039 -0.762436,0.37453 -0.387907,0.2809 -0.575172,0.66881 -0.187265,0.3879 -0.187265,0.86944 0,0.46816 0.361154,0.92295 0.361155,0.44141 1.056711,0.88282 1.257351,0.80257 1.912779,1.21722 0.668804,0.41466 0.708932,0.45479 0.722309,0.60193 1.070087,1.31086 0.347778,0.69555 0.347778,1.53825 0,1.12359 -0.428035,2.03316 -0.414658,0.90957 -1.284103,1.57838 -0.789189,0.6153 -1.779019,0.93632 -0.976454,0.32103 -2.140173,0.32103 -0.762436,0 -1.457993,-0.18727 -0.695556,-0.17388 -1.350984,-0.53504 -0.668804,-0.36115 -1.177095,-0.88282 -0.494915,-0.52167 -0.829317,-1.19047 l 0.98983,-0.92295 q 0.6153,1.15034 1.511497,1.71214 0.896198,0.56179 2.059917,0.56179 1.05671,0 1.725514,-0.6153 0.68218,-0.62867 0.68218,-1.65863 0,-0.6688 -0.30765,-1.29748 -0.294274,-0.64205 -0.909573,-1.24398 -0.561796,-0.49491 -1.136967,-0.98983 -0.575172,-0.49491 -1.150343,-0.98983 -0.601924,-0.6153 -0.909573,-1.2841 -0.30765,-0.6688 -0.30765,-1.40449 0,-0.8962 0.387906,-1.60513 0.387906,-0.70893 1.136967,-1.24397 0.655428,-0.46817 1.457993,-0.68218 0.815941,-0.21402 1.765642,-0.21402 0.789189,0 1.431241,0.14714 0.642052,0.13376 1.136967,0.40128 0.655428,0.34778 0.963077,0.88282 0.321026,0.53504 0.321026,1.2306 z m -7.169579,6.07274 q 0,0.68218 -0.481539,1.16372 -0.481538,0.46816 -1.150343,0.46816 -0.668804,0 -1.150342,-0.48154 -0.481539,-0.48154 -0.481539,-1.15034 0,-0.6688 0.481539,-1.15034 0.481538,-0.48154 1.150342,-0.48154 0.668805,0 1.150343,0.48154 0.481539,0.48154 0.481539,1.15034 z"
           style="font-style:normal;font-variant:normal;font-weight:normal;font-stretch:normal;font-family:Jokerman;-inkscape-font-specification:Jokerman;text-align:start;text-anchor:start;stroke-width:0.68485546"
           id="path43" 
           fill="rgb(255, 0, 140)" /><path
           d="m 42.946531,525.89769 q 0,6.87531 -1.926156,10.31296 -1.912779,3.45103 -5.751714,3.45103 -1.779019,0 -3.290516,-0.48154 -1.498121,-0.48154 -2.715344,-1.45799 l 0.615299,-1.16372 q 0.896198,0.74906 2.006412,1.11021 1.123591,0.37453 2.461199,0.37453 0.481539,0 0.92295,-0.0535 0.454786,-0.0401 0.882821,-0.16051 -0.214017,0.0267 -0.428035,0.0401 -0.200641,0.0134 -0.414658,0.0134 -1.016582,0 -1.926156,-0.32102 -0.909573,-0.32103 -1.725514,-0.96308 -0.856069,-0.68218 -1.29748,-1.52488 -0.441411,-0.82931 -0.481539,-1.83252 0.54842,0.74906 1.043334,1.28411 0.494915,0.54841 0.949702,0.84269 0.588548,0.38791 1.270728,0.57517 0.695556,0.20064 1.511497,0.20064 2.260558,0 3.477781,-2.5147 1.230599,-2.50133 1.444617,-7.51736 -0.401283,0.68218 -0.815941,1.19047 -0.401283,0.49492 -0.829317,0.82932 l 0.481539,1.19047 -0.815941,0.69556 -0.521668,-1.37774 q -0.414658,0.20064 -0.896197,0.26752 -0.468163,0.0669 -1.003206,0 l -0.387906,1.49812 -1.2306,-0.29427 0.588548,-1.40449 q -0.601924,-0.20064 -1.110215,-0.58855 -0.508291,-0.3879 -0.909573,-0.97645 l -1.150343,0.88282 -0.896198,-0.9497 1.578378,-0.8962 q -0.214017,-0.49491 -0.361154,-1.04333 -0.133761,-0.5618 -0.187265,-1.1771 l -1.29748,0.48154 -0.414659,-1.05671 1.60513,-0.46816 q -0.01338,-0.13376 -0.02675,-0.29428 -0.01338,-0.16051 -0.01338,-0.32102 0,-0.18727 0.02675,-0.54842 0.04013,-0.37453 0.08026,-0.92295 h -1.80577 l 0.13376,-1.27073 1.779019,0.26752 0.133761,-1.08346 2.247181,-0.16051 q -0.280897,1.09684 -0.428034,2.07329 -0.133761,0.96308 -0.133761,1.7924 0,0.89619 0.173889,1.64525 0.173889,0.74906 0.508291,1.33761 0.414659,0.73569 1.029958,1.11022 0.6153,0.36115 1.444617,0.36115 1.60513,0 2.394318,-1.04333 0.789189,-1.05671 0.789189,-3.15676 0,-0.72231 -0.107009,-1.52487 -0.107008,-0.81594 -0.334402,-1.71214 l 3.611542,-0.81594 q 0.214017,1.99303 0.321026,3.81218 0.120385,1.80577 0.120385,3.43765 z"
           style="font-style:normal;font-variant:normal;font-weight:normal;font-stretch:normal;font-family:Jokerman;-inkscape-font-specification:Jokerman;text-align:start;text-anchor:start;stroke-width:0.68485546"
           id="path45" fill="rgb(255, 0, 140)" /><path
           d="m 60.201675,529.65637 -5.149791,0.90958 q 0.107009,-4.09308 0.147137,-5.57783 0.04013,-1.49812 0.04013,-1.87265 0,-1.24398 -0.401282,-1.85928 -0.401283,-0.62867 -1.217224,-0.62867 -0.762436,0 -1.605129,0.69555 -0.829317,0.68218 -1.738891,2.05992 l -0.387906,6.92881 -2.421071,0.32103 -1.43124,-12.26587 4.574619,-0.96308 -0.200641,3.85231 q 0.98983,-1.32423 2.100045,-1.99303 1.110214,-0.68218 2.327438,-0.68218 1.605129,0 2.621711,1.20385 1.029959,1.20384 1.511497,3.62491 z m -2.207053,-5.24342 q 0,-0.41466 -0.214018,-0.62868 -0.214017,-0.22739 -0.642052,-0.22739 -0.428034,0 -0.655428,0.22739 -0.214017,0.21402 -0.214017,0.62868 0,0.44141 0.214017,0.6688 0.227394,0.21402 0.655428,0.21402 0.428035,0 0.642052,-0.21402 0.214018,-0.22739 0.214018,-0.6688 z m 0.494915,3.26376 q 0,-0.45478 -0.334402,-0.76243 -0.334402,-0.32103 -0.775813,-0.32103 -0.561795,0 -0.842693,0.2809 -0.267522,0.26752 -0.267522,0.80256 0,0.54842 0.267522,0.82932 0.280898,0.26752 0.842693,0.26752 0.441411,0 0.775813,-0.30765 0.334402,-0.32102 0.334402,-0.78919 z"
           style="font-style:normal;font-variant:normal;font-weight:normal;font-stretch:normal;font-family:Jokerman;-inkscape-font-specification:Jokerman;text-align:start;text-anchor:start;stroke-width:0.68485546"
           id="path47" fill="rgb(255, 0, 140)" /><path
           d="m 71.477712,518.78162 -0.200641,1.39111 -2.675216,0.20064 -0.200641,1.60513 2.875857,0.0803 -0.548419,1.8994 -2.554832,-0.16051 -1.003206,7.37022 -1.966284,0.34778 -0.254145,-7.95877 -2.407695,-0.17389 0.401283,-1.5115 1.97966,0.0401 -0.06688,-1.25735 -2.554831,0.20064 -0.575171,-2.07329 h 3.063122 l -0.133761,-4.65488 4.922398,-0.56179 -0.722309,5.21667 z m -3.477781,-2.1268 q 0,-0.54842 -0.280897,-0.81594 -0.267522,-0.2809 -0.815941,-0.2809 -0.54842,0 -0.829317,0.2809 -0.267522,0.26752 -0.267522,0.81594 0,0.5618 0.267522,0.8427 0.280897,0.26752 0.829317,0.26752 0.548419,0 0.815941,-0.26752 0.280897,-0.2809 0.280897,-0.8427 z m -0.481539,3.29052 q 0,-0.44141 -0.214017,-0.65543 -0.200641,-0.21402 -0.628676,-0.21402 -0.44141,0 -0.655428,0.21402 -0.214017,0.21402 -0.214017,0.65543 0,0.42803 0.214017,0.64205 0.214018,0.20064 0.655428,0.20064 0.428035,0 0.628676,-0.20064 0.214017,-0.21402 0.214017,-0.64205 z"
           style="font-style:normal;font-variant:normal;font-weight:normal;font-stretch:normal;font-family:Jokerman;-inkscape-font-specification:Jokerman;text-align:start;text-anchor:start;stroke-width:0.68485546"
           id="path49" fill="rgb(255, 0, 140)" /><path
           d="m 86.686315,528.8003 -0.01338,0.72231 q -2.073292,0.93633 -4.106456,1.39111 -2.019789,0.46817 -3.999449,0.46817 -1.096838,0 -2.006412,-0.21402 -0.909573,-0.21402 -1.631881,-0.62868 -0.85607,-0.49491 -1.29748,-1.27072 -0.428035,-0.77582 -0.428035,-1.80577 0,-1.81915 1.819147,-3.25039 1.832523,-1.43124 5.457441,-2.47458 -0.294274,-0.85607 -1.003206,-1.29748 -0.695556,-0.44141 -1.779019,-0.44141 -1.163719,0 -2.11342,0.48154 -0.949702,0.46816 -1.685387,1.39111 l -0.708932,-0.68218 q 1.123591,-1.72551 2.782225,-2.59496 1.658634,-0.88282 3.865687,-0.88282 1.792395,0 3.143379,1.00321 1.36436,0.98983 2.300686,2.98286 0.735684,1.56501 1.083462,3.34402 0.361155,1.76565 0.321026,3.75868 z m -2.073292,-4.65487 q 0,-0.48154 -0.24077,-0.72231 -0.227393,-0.24077 -0.708932,-0.24077 -0.481539,0 -0.735684,0.24077 -0.24077,0.24077 -0.24077,0.72231 0,0.48154 0.24077,0.72231 0.254145,0.22739 0.735684,0.22739 0.481539,0 0.708932,-0.22739 0.24077,-0.24077 0.24077,-0.72231 z m -3.183507,3.66504 q 0,-1.21722 -0.120385,-2.40769 -0.107009,-1.19047 -0.347778,-2.35419 -1.257352,0.36115 -2.273934,0.77581 -1.003206,0.40128 -1.752266,0.85607 l 1.36436,5.52432 q 1.070086,0 1.845899,-0.12038 0.775813,-0.12039 1.243975,-0.38791 0.02675,-0.48154 0.02675,-0.9497 0.01338,-0.46816 0.01338,-0.93633 z m 3.731926,-0.0535 q 0,-0.50829 -0.361154,-0.86945 -0.347778,-0.36115 -0.869445,-0.36115 -0.508291,0 -0.882822,0.34778 -0.361154,0.34778 -0.361154,0.88282 0,0.52167 0.361154,0.86944 0.374531,0.34778 0.882822,0.34778 0.521667,0 0.869445,-0.34778 0.361154,-0.36115 0.361154,-0.86944 z"
           style="font-style:normal;font-variant:normal;font-weight:normal;font-stretch:normal;font-family:Jokerman;-inkscape-font-specification:Jokerman;text-align:start;text-anchor:start;stroke-width:0.68485546"
           id="path51" fill="rgb(255, 0, 140)" /><path
           d="m 103.19239,523.11547 q 0,0.68218 -0.48153,1.17709 -0.48154,0.48154 -1.16372,0.48154 -0.69556,0 -1.19048,-0.48154 -0.481534,-0.49491 -0.481534,-1.17709 0,-0.6688 0.494914,-1.15034 0.50829,-0.48154 1.1771,-0.48154 0.65542,0 1.15034,0.48154 0.49491,0.48154 0.49491,1.15034 z m -11.503425,0.9497 q 0,0.69556 -0.494915,1.1771 -0.481539,0.46816 -1.190471,0.46816 -0.68218,0 -1.163719,-0.46816 -0.468163,-0.48154 -0.468163,-1.1771 0,-0.6688 0.481539,-1.15034 0.481539,-0.48154 1.150343,-0.48154 0.68218,0 1.177095,0.48154 0.508291,0.48154 0.508291,1.15034 z m 10.098945,4.54787 -3.410905,2.62171 -3.290516,-5.45744 -4.534491,5.28355 -0.882821,-0.78919 4.40073,-6.12624 -3.544661,-5.97911 1.631882,-1.05671 3.772054,4.50774 3.022995,-4.26697 2.059913,1.52487 -3.731924,4.33385 z"
           style="font-style:normal;font-variant:normal;font-weight:normal;font-stretch:normal;font-family:Jokerman;-inkscape-font-specification:Jokerman;text-align:start;text-anchor:start;stroke-width:0.68485546"
           id="path53" fill="rgb(255, 0, 140)" /><path
           d="m 111.51232,512.25409 -4.84214,3.95932 -1.07009,-1.05671 3.66505,-5.36381 z"
           style="font-style:normal;font-variant:normal;font-weight:normal;font-stretch:normal;font-family:Jokerman;-inkscape-font-specification:Jokerman;text-align:start;text-anchor:start;stroke-width:0.68485546"
           id="path55" fill="rgb(255, 0, 140)" /><path
           d="m 124.05908,519.90521 q 0,1.11021 -0.48154,1.65863 -0.48154,0.53505 -1.44462,0.53505 -0.86944,0 -1.31085,-0.32103 -0.42804,-0.3344 -0.42804,-0.98983 0,-0.32102 0.17389,-0.57517 0.17389,-0.26752 0.52167,-0.45479 l 0.38791,0.2809 q -0.0936,0.10701 -0.14714,0.21402 -0.0535,0.0936 -0.0535,0.18726 0,0.26752 0.16052,0.40129 0.16051,0.12038 0.46816,0.12038 0.42803,0 0.62868,-0.20064 0.20064,-0.21402 0.20064,-0.65543 0,-0.34778 -0.18727,-0.62867 -0.17389,-0.2809 -0.53504,-0.48154 -0.2809,-0.16052 -0.62868,-0.24077 -0.3344,-0.0803 -0.73568,-0.0803 -0.50829,0 -0.92295,0.13376 -0.40128,0.12039 -0.76244,0.37453 -0.3879,0.2809 -0.57517,0.66881 -0.18726,0.3879 -0.18726,0.86944 0,0.46816 0.36115,0.92295 0.36115,0.44141 1.05671,0.88282 1.25735,0.80257 1.91278,1.21722 0.6688,0.41466 0.70893,0.45479 0.72231,0.60193 1.07009,1.31086 0.34778,0.69555 0.34778,1.53825 0,1.12359 -0.42804,2.03316 -0.41466,0.90957 -1.2841,1.57838 -0.78919,0.6153 -1.77902,0.93632 -0.97645,0.32103 -2.14017,0.32103 -0.76244,0 -1.458,-0.18727 -0.69555,-0.17388 -1.35098,-0.53504 -0.6688,-0.36115 -1.1771,-0.88282 -0.49491,-0.52167 -0.82931,-1.19047 l 0.98983,-0.92295 q 0.6153,1.15034 1.51149,1.71214 0.8962,0.56179 2.05992,0.56179 1.05671,0 1.72552,-0.6153 0.68218,-0.62867 0.68218,-1.65863 0,-0.6688 -0.30765,-1.29748 -0.29428,-0.64205 -0.90958,-1.24398 -0.56179,-0.49491 -1.13696,-0.98983 -0.57518,-0.49491 -1.15035,-0.98983 -0.60192,-0.6153 -0.90957,-1.2841 -0.30765,-0.6688 -0.30765,-1.40449 0,-0.8962 0.38791,-1.60513 0.3879,-0.70893 1.13696,-1.24397 0.65543,-0.46817 1.45799,-0.68218 0.81595,-0.21402 1.76565,-0.21402 0.78919,0 1.43124,0.14714 0.64205,0.13376 1.13696,0.40128 0.65543,0.34778 0.96308,0.88282 0.32103,0.53504 0.32103,1.2306 z m -7.16958,6.07274 q 0,0.68218 -0.48154,1.16372 -0.48154,0.46816 -1.15034,0.46816 -0.66881,0 -1.15035,-0.48154 -0.48153,-0.48154 -0.48153,-1.15034 0,-0.6688 0.48153,-1.15034 0.48154,-0.48154 1.15035,-0.48154 0.6688,0 1.15034,0.48154 0.48154,0.48154 0.48154,1.15034 z"
           style="font-style:normal;font-variant:normal;font-weight:normal;font-stretch:normal;font-family:Jokerman;-inkscape-font-specification:Jokerman;text-align:start;text-anchor:start;stroke-width:0.68485546"
           id="path57" fill="rgb(255, 0, 140)" /><path
           d="m 150.85137,526.49962 q 0,1.12359 -0.82932,1.88602 -0.82932,0.76244 -2.47458,1.13697 -0.9497,0.21402 -2.64846,0.36116 -1.69876,0.14713 -4.14658,0.20064 -2.23381,0.0535 -3.66505,0.17389 -1.41787,0.13376 -2.01979,0.37453 l 0.77581,-11.34292 -1.85927,-0.14714 0.13376,-2.28731 1.91278,-0.0669 0.17389,-2.5147 -1.99304,-0.14714 0.13376,-2.24718 2.01979,0.0669 0.16051,-2.64846 -2.07329,-0.2274 0.0267,-2.07329 7.65112,0.54842 -3.78543,20.03737 0.54842,-0.0267 q 0.53504,-0.0267 1.29748,0.0401 0.76244,0.0535 1.73889,0.13376 1.05671,0.0936 1.80577,0.14713 0.74906,0.0401 1.21722,0.0401 2.11343,0 3.17014,-0.58855 1.05671,-0.60192 1.05671,-1.80577 0,-0.40128 -0.10701,-0.85607 -0.10701,-0.46816 -0.32103,-1.0032 l 1.00321,-0.54842 q 0.54842,0.98983 0.81594,1.83252 0.2809,0.8427 0.2809,1.55163 z m -4.54787,-5.44407 q 0,0.68218 -0.49492,1.19047 -0.49491,0.49492 -1.17709,0.49492 -0.69556,0 -1.19047,-0.49492 -0.49492,-0.50829 -0.49492,-1.19047 0,-0.65543 0.49492,-1.13696 0.50829,-0.49492 1.19047,-0.49492 0.6688,0 1.16372,0.49492 0.50829,0.48153 0.50829,1.13696 z"
           style="font-style:normal;font-variant:normal;font-weight:normal;font-stretch:normal;font-family:Jokerman;-inkscape-font-specification:Jokerman;text-align:start;text-anchor:start;stroke-width:0.68485546"
           id="path59" fill="rgb(255, 161, 213)" /><path
           d="m 171.93207,529.49586 -2.36756,0.54842 -1.60513,-4.88227 -9.59065,-0.13376 -2.39432,6.51415 -5.14979,-3.54466 10.07219,-20.65267 3.71855,-0.32103 z m -6.08611,-10.71424 -2.51471,-8.98873 -3.45103,10.35309 z m 1.32423,4.0262 -0.77581,-2.32744 -7.19634,1.77902 -0.42803,1.08346 z m -9.8983,-1.43124 -0.48154,-0.6153 q -0.96308,1.60513 -1.71214,3.38415 -0.74906,1.77902 -1.2841,3.7453 l 1.2306,0.52167 q 0.26752,-1.83253 0.82931,-3.58479 0.57518,-1.76565 1.41787,-3.45103 z"
           style="font-style:normal;font-variant:normal;font-weight:normal;font-stretch:normal;font-family:Jokerman;-inkscape-font-specification:Jokerman;text-align:start;text-anchor:start;stroke-width:0.68485546"
           id="path61" fill="rgb(255, 161, 213)" /><path
           d="m 190.05666,523.14222 q 0,1.81915 -0.7223,3.22364 -0.72231,1.39111 -2.15355,2.36756 -1.2306,0.8427 -2.80898,1.25735 -1.565,0.41466 -3.49116,0.41466 -1.2306,0 -2.59496,-0.16051 -1.36436,-0.16051 -2.8491,-0.52167 l -0.9497,-22.69921 q 0.64205,-0.0669 1.25735,-0.107 0.62867,-0.0401 1.20384,-0.0401 1.65864,0 3.0765,0.30765 1.41787,0.29427 2.59496,0.90957 1.49812,0.77581 2.23381,1.91278 0.74906,1.13697 0.74906,2.63509 0,0.65543 -0.16051,1.33761 -0.16052,0.6688 -0.49492,1.35098 2.28731,0.97645 3.6918,3.15676 1.41786,2.16692 1.41786,4.65487 z m -8.19953,-7.23646 -0.58855,-6.86193 q -0.18727,-0.18726 -0.62868,-0.36115 -0.42803,-0.18727 -1.11021,-0.36116 l -0.98983,9.60403 q 1.12359,-0.36115 1.95291,-0.86945 0.84269,-0.50829 1.36436,-1.15034 z m 3.49115,5.06954 q 0,-1.20385 -0.45478,-2.19368 -0.44141,-0.98983 -1.33761,-1.7924 -1.07009,0.94971 -2.35419,1.57838 -1.28411,0.62868 -2.7956,0.92295 l -0.78919,8.50719 q 1.53825,-0.0535 2.86248,-0.5618 1.32423,-0.50829 2.4612,-1.44461 1.21722,-1.00321 1.80577,-2.26056 0.60192,-1.25735 0.60192,-2.75547 z m 3.023,2.00641 q 0,-0.46816 -0.24077,-0.70893 -0.2274,-0.24077 -0.70893,-0.24077 -0.48154,0 -0.72231,0.24077 -0.24077,0.24077 -0.24077,0.70893 0,0.48154 0.24077,0.72231 0.24077,0.22739 0.72231,0.22739 0.48153,0 0.70893,-0.22739 0.24077,-0.24077 0.24077,-0.72231 z m -0.98983,3.13 q 0,-0.49491 -0.36116,-0.85607 -0.34777,-0.36115 -0.86944,-0.36115 -0.52167,0 -0.88282,0.36115 -0.34778,0.36116 -0.34778,0.85607 0,0.52167 0.34778,0.88282 0.36115,0.34778 0.88282,0.34778 0.52167,0 0.86944,-0.34778 0.36116,-0.36115 0.36116,-0.88282 z m -2.99624,2.04654 q 0,-0.46816 -0.24077,-0.70893 -0.24077,-0.24077 -0.72231,-0.24077 -0.46817,0 -0.70893,0.24077 -0.24077,0.24077 -0.24077,0.70893 0,0.48154 0.24077,0.72231 0.24076,0.24077 0.70893,0.24077 0.48154,0 0.72231,-0.24077 0.24077,-0.24077 0.24077,-0.72231 z m -0.96308,-8.11928 q -1.21723,1.44462 -2.19368,3.00962 -0.97645,1.565 -1.72551,3.25039 l -0.78919,0.0267 q 0.6153,-1.76564 1.49812,-3.49116 0.8962,-1.73889 2.05991,-3.43765 z"
           style="font-style:normal;font-variant:normal;font-weight:normal;font-stretch:normal;font-family:Jokerman;-inkscape-font-specification:Jokerman;text-align:start;text-anchor:start;stroke-width:0.68485546"
           id="path63" fill="rgb(255, 161, 213)" /></g><flowRoot
         xml:space="preserve"
         id="flowRoot38"
         style="font-style:normal;font-weight:normal;font-size:40px;line-height:1.25;font-family:sans-serif;letter-spacing:0px;word-spacing:0px;fill:#000000;fill-opacity:1;stroke:none"
         transform="translate(-1.5819968,406.418)"><flowRegion
           id="flowRegion40"><rect
             id="rect42"
             width="154.24516"
             height="126.56013"
             x="256.28427"
             y="-73.795197" /></flowRegion><flowPara
           id="flowPara44" /></flowRoot></g></g></svg>